<svg class="animated" id="freepik_stories-recycling" xmlns="http://www.w3.org/2000/svg" viewBox="0 0 500 500" version="1.1" xmlns:xlink="http://www.w3.org/1999/xlink" xmlns:svgjs="http://svgjs.com/svgjs"><style>svg#freepik_stories-recycling:not(.animated) .animable {opacity: 0;}svg#freepik_stories-recycling.animated #freepik--Character--inject-1 {animation: 6.0s 1 forwards cubic-bezier(.36,-0.01,.5,1.38) slideLeft;animation-delay: 0s;}            @keyframes slideLeft {                0% {                    opacity: 0;                    transform: translateX(-30px);                }                100% {                    opacity: 1;                    transform: translateX(0);                }            }        </style><g id="freepik--background-complete--inject-1" class="animable" style="transform-origin: 250px 228.23px;"><rect y="382.4" width="500" height="0.25" style="fill: rgb(235, 235, 235); transform-origin: 250px 382.525px;" id="eltqmii5zll6" class="animable"></rect><rect x="416.78" y="398.49" width="33.12" height="0.25" style="fill: rgb(235, 235, 235); transform-origin: 433.34px 398.615px;" id="ellsrj7sjlfvq" class="animable"></rect><rect x="322.53" y="401.21" width="8.69" height="0.25" style="fill: rgb(235, 235, 235); transform-origin: 326.875px 401.335px;" id="elbuae51xxcs4" class="animable"></rect><rect x="396.59" y="389.21" width="19.19" height="0.25" style="fill: rgb(235, 235, 235); transform-origin: 406.185px 389.335px;" id="el7dg90if2s2h" class="animable"></rect><rect x="52.46" y="390.89" width="43.19" height="0.25" style="fill: rgb(235, 235, 235); transform-origin: 74.055px 391.015px;" id="elu0zt9goou0b" class="animable"></rect><rect x="104.56" y="390.89" width="6.33" height="0.25" style="fill: rgb(235, 235, 235); transform-origin: 107.725px 391.015px;" id="ellrsckwkz2d" class="animable"></rect><rect x="131.47" y="395.11" width="93.68" height="0.25" style="fill: rgb(235, 235, 235); transform-origin: 178.31px 395.235px;" id="eloqc6eozgsm8" class="animable"></rect><path d="M237,337.8H43.91a5.71,5.71,0,0,1-5.7-5.71V60.66A5.71,5.71,0,0,1,43.91,55H237a5.71,5.71,0,0,1,5.71,5.71V332.09A5.71,5.71,0,0,1,237,337.8ZM43.91,55.2a5.46,5.46,0,0,0-5.45,5.46V332.09a5.46,5.46,0,0,0,5.45,5.46H237a5.47,5.47,0,0,0,5.46-5.46V60.66A5.47,5.47,0,0,0,237,55.2Z" style="fill: rgb(235, 235, 235); transform-origin: 140.46px 196.4px;" id="elirb7uyjwd5p" class="animable"></path><path d="M453.31,337.8H260.21a5.72,5.72,0,0,1-5.71-5.71V60.66A5.72,5.72,0,0,1,260.21,55h193.1A5.71,5.71,0,0,1,459,60.66V332.09A5.71,5.71,0,0,1,453.31,337.8ZM260.21,55.2a5.47,5.47,0,0,0-5.46,5.46V332.09a5.47,5.47,0,0,0,5.46,5.46h193.1a5.47,5.47,0,0,0,5.46-5.46V60.66a5.47,5.47,0,0,0-5.46-5.46Z" style="fill: rgb(235, 235, 235); transform-origin: 356.75px 196.4px;" id="eljr7p4qr4zxe" class="animable"></path><path d="M198,112.74a4.51,4.51,0,0,1,4.51-4.51,4.31,4.31,0,0,1,1.3.19,9.19,9.19,0,0,1-.1-1.39,9.56,9.56,0,0,1,9.56-9.56,9.37,9.37,0,0,1,1.76.17,8.35,8.35,0,0,1,15.49,4.22h.14a7.7,7.7,0,0,1,0,15.4H202.34A4.51,4.51,0,0,1,198,112.74Z" style="fill: rgb(245, 245, 245); transform-origin: 218.18px 105.439px;" id="elcn4r54yyj59" class="animable"></path><path d="M261.59,136a2.26,2.26,0,0,1,2.26-2.26,2,2,0,0,1,.65.1,5.36,5.36,0,0,1-.05-.7,4.78,4.78,0,0,1,4.78-4.78,4.31,4.31,0,0,1,.88.09,4.17,4.17,0,0,1,7.74,2.11h.07a3.85,3.85,0,0,1,0,7.7H263.79A2.26,2.26,0,0,1,261.59,136Z" style="fill: rgb(245, 245, 245); transform-origin: 271.676px 132.347px;" id="elra9c0j2kd88" class="animable"></path><path d="M389,211.87a2.27,2.27,0,0,1,2.9-2.17,5.09,5.09,0,0,1-.05-.69,4.78,4.78,0,0,1,4.78-4.78,5.05,5.05,0,0,1,.88.08,4.18,4.18,0,0,1,7.75,2.12h.07a3.85,3.85,0,0,1,0,7.7H391.22A2.25,2.25,0,0,1,389,211.87Z" style="fill: rgb(245, 245, 245); transform-origin: 399.09px 208.217px;" id="eltj9lv56ox4g" class="animable"></path><path d="M84.21,212.78a2.24,2.24,0,0,1,2.9-2.16,5.36,5.36,0,0,1,0-.7,4.78,4.78,0,0,1,4.78-4.78,4.24,4.24,0,0,1,.88.09,4.18,4.18,0,0,1,7.75,2.11h.07a3.85,3.85,0,0,1,0,7.7H86.4A2.25,2.25,0,0,1,84.21,212.78Z" style="fill: rgb(245, 245, 245); transform-origin: 94.325px 209.132px;" id="elxompxqc1gb" class="animable"></path><path d="M321.83,113a3,3,0,0,1,3-3,3,3,0,0,1,.85.13,5.49,5.49,0,0,1-.07-.91,6.25,6.25,0,0,1,7.42-6.16,5.48,5.48,0,0,1,10.16,2.77h.09a5.05,5.05,0,1,1,0,10.1H324.7A3,3,0,0,1,321.83,113Z" style="fill: rgb(245, 245, 245); transform-origin: 335.08px 108.18px;" id="elwptmf91dus" class="animable"></path><path d="M100.65,184a8.92,8.92,0,0,1-.27-1.76c-.21-3.64-3.69-3.06-6.64-3.55-2.31-.39,3.8-6.22-.86-8.11A4,4,0,0,1,90.64,169a2.65,2.65,0,0,1,1-3.23,6.34,6.34,0,0,1,3.54-.89c.76-.92.14-2.31-.6-3.25s-1.63-2-1.35-3.18c.42-1.75,2.87-1.82,4.64-1.48.66-1.06.65-2.38,1-3.59s1.28-2.47,2.52-2.32,1.88,1.46,3,1.73c1.33.31,2.48-.86,3.52-1.74s2.86-1.43,3.58-.27c.43.69.17,1.66.62,2.34.77,1.19,2.6.45,3.74-.39s3-1.6,3.76-.43a4.85,4.85,0,0,1,.44,1.21c.54,1.56,2.22,2.33,3.53,3.33s2.34,3,1.23,4.2c-.54.6-1.5.84-1.78,1.61-.33.95.64,1.81,1.42,2.47,1.28,1.09,1.51,4.36-.19,5.26-.71.38-1.76.49-1.93,1.28s.56,1.25,1,1.79a3.39,3.39,0,0,1-1,5c-.41.19-.91.35-1.07.78a1.64,1.64,0,0,0,.1.95,5.08,5.08,0,0,1,.17,1.82.82.82,0,0,1-.23.57.84.84,0,0,1-.54.16c-2.45.11-3.64-.76-5.14,1.37a1.68,1.68,0,0,1-.51.55,1.55,1.55,0,0,1-.68.17c-1.68.14-2.79-.92-4.33-1.12-2.14-.27-2.59.84-4.48,1.72C102.64,186.83,101.2,186,100.65,184Z" style="fill: rgb(245, 245, 245); transform-origin: 107.956px 168.122px;" id="elsbp0of0sp4g" class="animable"></path><path d="M128.93,180.89a8.73,8.73,0,0,1-.26-1.75c-.22-3.64-3.69-3.07-6.65-3.56-2.31-.39,3.81-6.22-.85-8.1a4.1,4.1,0,0,1-2.24-1.57,2.64,2.64,0,0,1,1-3.23,6.24,6.24,0,0,1,3.53-.88c.76-.93.15-2.31-.59-3.26s-1.63-2-1.35-3.18c.42-1.75,2.87-1.81,4.64-1.47.66-1.06.64-2.39,1-3.6s1.28-2.47,2.52-2.32,1.87,1.46,3,1.73c1.32.32,2.47-.86,3.51-1.74s2.87-1.43,3.58-.27c.43.69.18,1.66.62,2.35.78,1.18,2.61.45,3.75-.39s3-1.61,3.75-.44a5.09,5.09,0,0,1,.45,1.22c.53,1.55,2.21,2.33,3.52,3.32s2.35,3,1.24,4.2c-.54.6-1.51.84-1.78,1.61-.34.95.64,1.81,1.41,2.47,1.29,1.09,1.52,4.37-.18,5.26-.71.38-1.76.49-1.93,1.28s.55,1.25,1,1.8a3.38,3.38,0,0,1-1,5c-.4.2-.91.36-1.06.78a1.57,1.57,0,0,0,.1.95,4.92,4.92,0,0,1,.16,1.83.85.85,0,0,1-.22.57.9.9,0,0,1-.54.15c-2.45.11-3.64-.76-5.14,1.38a1.75,1.75,0,0,1-.51.54,1.55,1.55,0,0,1-.68.17c-1.69.14-2.79-.92-4.33-1.11-2.14-.27-2.6.83-4.48,1.72C130.93,183.77,129.49,182.91,128.93,180.89Z" style="fill: rgb(245, 245, 245); transform-origin: 136.244px 165.041px;" id="eljgyyrhtq3k9" class="animable"></path><path d="M131.66,162.88a8.26,8.26,0,0,1-.26-1.76c-.22-3.64-3.69-3.06-6.65-3.56-2.31-.38,3.8-6.21-.85-8.1a4.07,4.07,0,0,1-2.25-1.56,2.65,2.65,0,0,1,1-3.23,6.31,6.31,0,0,1,3.53-.89c.76-.92.14-2.31-.59-3.25s-1.64-2-1.36-3.18c.42-1.76,2.87-1.82,4.65-1.48.65-1.06.64-2.39,1-3.59s1.27-2.47,2.51-2.32,1.88,1.46,3,1.73c1.33.31,2.48-.86,3.52-1.74s2.86-1.43,3.58-.27c.43.69.17,1.66.62,2.34.77,1.19,2.61.45,3.75-.39s2.95-1.6,3.75-.43a4.48,4.48,0,0,1,.44,1.21c.54,1.56,2.22,2.33,3.53,3.33s2.35,3,1.24,4.2c-.55.6-1.51.84-1.78,1.6-.34,1,.64,1.82,1.41,2.47,1.29,1.1,1.52,4.37-.18,5.27-.72.37-1.76.49-1.94,1.28s.56,1.25,1,1.79a3.38,3.38,0,0,1-1,5c-.41.19-.91.35-1.06.78a1.57,1.57,0,0,0,.1,1,5.08,5.08,0,0,1,.16,1.82.81.81,0,0,1-.22.57.86.86,0,0,1-.54.16c-2.46.1-3.64-.76-5.14,1.37a1.92,1.92,0,0,1-.51.55,1.62,1.62,0,0,1-.68.16c-1.69.14-2.79-.91-4.34-1.11-2.14-.27-2.59.83-4.48,1.72C133.66,165.76,132.22,164.9,131.66,162.88Z" style="fill: rgb(245, 245, 245); transform-origin: 138.965px 147.035px;" id="elpdjuk26wcgb" class="animable"></path><path d="M150.29,171.85a9,9,0,0,1-.26-1.76c-.22-3.64-3.69-3.06-6.65-3.55-2.31-.39,3.81-6.22-.85-8.1a4.1,4.1,0,0,1-2.24-1.57,2.63,2.63,0,0,1,1-3.23,6.25,6.25,0,0,1,3.54-.88c.75-.93.14-2.32-.6-3.26s-1.63-2-1.35-3.18c.42-1.75,2.87-1.82,4.64-1.48.66-1.06.64-2.38,1-3.59s1.28-2.47,2.52-2.32,1.87,1.46,3,1.73c1.32.31,2.47-.86,3.52-1.74s2.86-1.43,3.57-.27c.43.69.18,1.66.62,2.34.78,1.19,2.61.45,3.75-.39s2.95-1.6,3.75-.43a5.09,5.09,0,0,1,.45,1.22c.53,1.55,2.21,2.33,3.52,3.32s2.35,3,1.24,4.2c-.54.6-1.51.84-1.78,1.61-.34.95.64,1.81,1.41,2.47,1.29,1.09,1.52,4.37-.18,5.26-.71.38-1.76.49-1.93,1.28s.55,1.25,1,1.8a3.38,3.38,0,0,1-1,5c-.4.19-.91.35-1.06.78a1.57,1.57,0,0,0,.1,1,4.86,4.86,0,0,1,.16,1.82.85.85,0,0,1-.22.58.9.9,0,0,1-.54.15c-2.45.11-3.64-.76-5.14,1.38a1.75,1.75,0,0,1-.51.54,1.55,1.55,0,0,1-.68.17c-1.69.14-2.79-.92-4.33-1.11-2.14-.28-2.6.83-4.48,1.71C152.29,174.73,150.85,173.87,150.29,171.85Z" style="fill: rgb(245, 245, 245); transform-origin: 157.603px 156.007px;" id="el6dyrk947yls" class="animable"></path><path d="M169.13,167.7a8.7,8.7,0,0,1-.27-1.75c-.21-3.64-3.69-3.06-6.64-3.56-2.31-.38,3.8-6.22-.85-8.1a4.07,4.07,0,0,1-2.25-1.56,2.65,2.65,0,0,1,1-3.23,6.26,6.26,0,0,1,3.54-.89c.76-.92.14-2.31-.6-3.25s-1.63-2-1.35-3.18c.42-1.76,2.87-1.82,4.64-1.48.66-1.06.65-2.39,1-3.59s1.28-2.47,2.52-2.32,1.88,1.46,3,1.73c1.33.31,2.48-.87,3.52-1.75s2.86-1.43,3.58-.27c.43.7.17,1.67.62,2.35.77,1.19,2.6.45,3.74-.39s3-1.6,3.76-.44a5.07,5.07,0,0,1,.44,1.22c.54,1.56,2.22,2.33,3.53,3.33s2.34,3,1.23,4.19c-.54.6-1.5.85-1.77,1.61-.34,1,.63,1.82,1.41,2.47,1.28,1.1,1.52,4.37-.19,5.27-.71.37-1.76.49-1.93,1.28s.56,1.25,1,1.79a3.38,3.38,0,0,1-1,5c-.41.2-.91.36-1.06.79a1.65,1.65,0,0,0,.09.95,5.08,5.08,0,0,1,.17,1.82.82.82,0,0,1-.23.57.75.75,0,0,1-.53.15c-2.46.11-3.65-.76-5.14,1.38a1.68,1.68,0,0,1-.52.54,1.55,1.55,0,0,1-.67.17c-1.69.14-2.8-.91-4.34-1.11-2.14-.27-2.59.83-4.48,1.72C171.12,170.58,169.68,169.73,169.13,167.7Z" style="fill: rgb(245, 245, 245); transform-origin: 176.438px 151.852px;" id="ele41rfdxqqos" class="animable"></path><path d="M169.37,187.85a7.71,7.71,0,0,1-.21-1.38c-.17-2.87-2.9-2.41-5.23-2.8-1.82-.31,3-4.9-.67-6.38a3.29,3.29,0,0,1-1.77-1.23,2.1,2.1,0,0,1,.8-2.55,4.85,4.85,0,0,1,2.78-.69c.6-.73.12-1.83-.46-2.57s-1.29-1.58-1.07-2.5c.33-1.38,2.26-1.43,3.66-1.16a10.27,10.27,0,0,0,.75-2.83c.25-.95,1-1.95,2-1.83s1.48,1.15,2.38,1.36c1.05.25,1.95-.68,2.77-1.37s2.26-1.13,2.82-.21c.34.54.14,1.31.49,1.85.61.93,2.05.35,3-.31s2.32-1.26,2.95-.35a3.69,3.69,0,0,1,.35,1c.43,1.23,1.75,1.84,2.78,2.62s1.85,2.35,1,3.31c-.43.47-1.18.66-1.4,1.26-.26.76.51,1.43,1.11,1.95,1,.86,1.2,3.44-.14,4.14-.56.3-1.39.39-1.52,1s.44,1,.81,1.41a2.67,2.67,0,0,1-.81,4c-.33.15-.72.28-.84.61a1.22,1.22,0,0,0,.08.75,4.13,4.13,0,0,1,.13,1.44.67.67,0,0,1-.18.45.74.74,0,0,1-.42.12c-1.94.08-2.87-.6-4.05,1.08a1.37,1.37,0,0,1-.4.43,1.23,1.23,0,0,1-.54.13c-1.33.11-2.2-.72-3.41-.87-1.69-.22-2,.65-3.53,1.35C170.94,190.12,169.81,189.44,169.37,187.85Z" style="fill: rgb(245, 245, 245); transform-origin: 175.172px 175.382px;" id="elt9r7mhbjsd8" class="animable"></path><path d="M179.93,180.89a8,8,0,0,1-.27-1.75c-.22-3.64-3.69-3.07-6.65-3.56-2.3-.39,3.81-6.22-.85-8.1a4.1,4.1,0,0,1-2.24-1.57,2.64,2.64,0,0,1,1-3.23,6.25,6.25,0,0,1,3.54-.88c.76-.93.14-2.31-.6-3.26s-1.63-2-1.35-3.18c.42-1.75,2.87-1.81,4.64-1.47.66-1.06.65-2.39,1-3.6s1.28-2.47,2.52-2.32,1.87,1.46,3,1.73c1.33.32,2.47-.86,3.52-1.74s2.86-1.43,3.58-.27c.43.69.17,1.66.61,2.35.78,1.18,2.61.45,3.75-.39s2.95-1.61,3.76-.44a5.54,5.54,0,0,1,.44,1.22c.54,1.55,2.22,2.33,3.52,3.32s2.35,3,1.24,4.2c-.54.6-1.5.84-1.78,1.61-.34.95.64,1.81,1.41,2.47,1.29,1.09,1.52,4.37-.18,5.26-.71.38-1.76.49-1.93,1.28s.55,1.25,1,1.8a3.38,3.38,0,0,1-1,5c-.4.2-.91.36-1.06.78a1.64,1.64,0,0,0,.1.95,4.92,4.92,0,0,1,.16,1.83.85.85,0,0,1-.22.57.9.9,0,0,1-.54.15c-2.45.11-3.64-.76-5.14,1.38a1.75,1.75,0,0,1-.51.54,1.55,1.55,0,0,1-.68.17c-1.68.14-2.79-.92-4.33-1.11-2.14-.27-2.6.83-4.48,1.72C181.92,183.77,180.48,182.91,179.93,180.89Z" style="fill: rgb(245, 245, 245); transform-origin: 187.234px 165.041px;" id="elgmkvigsd0m" class="animable"></path><path d="M150.29,149.69a9,9,0,0,1-.26-1.76c-.22-3.63-3.69-3.06-6.65-3.55-2.31-.39,3.81-6.22-.85-8.1a4.1,4.1,0,0,1-2.24-1.57,2.64,2.64,0,0,1,1-3.23,6.25,6.25,0,0,1,3.54-.88c.75-.93.14-2.32-.6-3.26s-1.63-2-1.35-3.18c.42-1.75,2.87-1.82,4.64-1.47.66-1.06.64-2.39,1-3.6s1.28-2.47,2.52-2.32,1.87,1.46,3,1.73c1.32.31,2.47-.86,3.52-1.74s2.86-1.43,3.57-.27c.43.69.18,1.66.62,2.35.78,1.18,2.61.45,3.75-.4s2.95-1.6,3.75-.43a5.09,5.09,0,0,1,.45,1.22c.53,1.55,2.21,2.33,3.52,3.32s2.35,3,1.24,4.2c-.54.6-1.51.84-1.78,1.61-.34.95.64,1.81,1.41,2.47,1.29,1.09,1.52,4.37-.18,5.26-.71.38-1.76.49-1.93,1.28s.55,1.25,1,1.8a3.38,3.38,0,0,1-1,5c-.4.19-.91.36-1.06.78a1.57,1.57,0,0,0,.1,1,4.9,4.9,0,0,1,.16,1.83.85.85,0,0,1-.22.57.9.9,0,0,1-.54.15c-2.45.11-3.64-.76-5.14,1.38a1.75,1.75,0,0,1-.51.54,1.55,1.55,0,0,1-.68.17c-1.69.14-2.79-.92-4.33-1.11-2.14-.28-2.6.83-4.48,1.71C152.29,152.57,150.85,151.71,150.29,149.69Z" style="fill: rgb(245, 245, 245); transform-origin: 157.604px 133.847px;" id="elyl05q26ms6q" class="animable"></path><path d="M126.1,150.93a8.26,8.26,0,0,1-.26-1.76c-.22-3.64-3.69-3.06-6.65-3.55-2.31-.39,3.81-6.22-.85-8.11a4.07,4.07,0,0,1-2.25-1.56,2.65,2.65,0,0,1,1-3.23,6.31,6.31,0,0,1,3.53-.89c.76-.92.14-2.31-.59-3.25s-1.64-2-1.36-3.18c.42-1.76,2.88-1.82,4.65-1.48.65-1.06.64-2.38,1-3.59s1.27-2.47,2.51-2.32,1.88,1.46,3,1.73c1.33.31,2.48-.86,3.52-1.74s2.86-1.43,3.58-.27c.43.69.17,1.66.62,2.34.77,1.19,2.61.45,3.75-.39s2.95-1.6,3.75-.43a4.48,4.48,0,0,1,.44,1.21c.54,1.56,2.22,2.33,3.53,3.33s2.35,3,1.24,4.2c-.55.6-1.51.84-1.78,1.61-.34,1,.64,1.81,1.41,2.47,1.29,1.09,1.52,4.36-.18,5.26-.72.37-1.76.49-1.94,1.28s.56,1.25,1,1.79a3.38,3.38,0,0,1-1,5c-.41.19-.91.35-1.06.78a1.57,1.57,0,0,0,.1.95A5.08,5.08,0,0,1,147,149a.81.81,0,0,1-.22.57.86.86,0,0,1-.54.16c-2.46.11-3.64-.76-5.14,1.37a1.92,1.92,0,0,1-.51.55,1.63,1.63,0,0,1-.68.17c-1.69.13-2.79-.92-4.34-1.12-2.14-.27-2.59.84-4.48,1.72C128.1,153.81,126.66,153,126.1,150.93Z" style="fill: rgb(245, 245, 245); transform-origin: 133.405px 135.091px;" id="el6d7gkpcvmaa" class="animable"></path><path d="M111.41,160.83a8.23,8.23,0,0,1-.27-1.76c-.22-3.64-3.69-3.06-6.65-3.55-2.3-.39,3.81-6.22-.85-8.1a4.1,4.1,0,0,1-2.24-1.57,2.63,2.63,0,0,1,1-3.23,6.34,6.34,0,0,1,3.54-.89c.76-.92.14-2.31-.6-3.25s-1.63-2-1.35-3.18c.42-1.75,2.87-1.82,4.64-1.48.66-1.06.64-2.38,1-3.59s1.28-2.47,2.52-2.32,1.87,1.46,3,1.73c1.33.31,2.47-.86,3.52-1.74s2.86-1.43,3.58-.27c.43.69.17,1.66.61,2.34.78,1.19,2.61.45,3.75-.39s3-1.6,3.75-.43a5.09,5.09,0,0,1,.45,1.22c.54,1.55,2.22,2.32,3.52,3.32s2.35,3,1.24,4.2c-.54.6-1.5.84-1.78,1.61-.34.95.64,1.81,1.41,2.47,1.29,1.09,1.52,4.36-.18,5.26-.71.38-1.76.49-1.93,1.28s.55,1.25,1,1.79a3.39,3.39,0,0,1-1,5c-.4.19-.91.35-1.06.78a1.57,1.57,0,0,0,.1.95,4.86,4.86,0,0,1,.16,1.82.85.85,0,0,1-.22.58.9.9,0,0,1-.54.15c-2.45.11-3.64-.76-5.14,1.37a1.68,1.68,0,0,1-.51.55,1.55,1.55,0,0,1-.68.17c-1.68.14-2.79-.92-4.33-1.11-2.14-.28-2.6.83-4.48,1.71C113.4,163.71,112,162.85,111.41,160.83Z" style="fill: rgb(245, 245, 245); transform-origin: 118.713px 144.978px;" id="elmx1xp7c16h" class="animable"></path><path d="M115.86,173.34s6.15,8.69,8.27,11.44,12.71,19.93,14.15,31.28c.16,1.21.31,2.25.46,3.17-4.56,30.08-3.85,144.93-3.68,154.35h18.69C150.2,303,150.85,206,151.31,203.05c.48-3.14,6.51-15.09,15.84-20s17.38-21.15,17.38-21.15h-3s-5.51,10-13.35,15.47a30.86,30.86,0,0,1-3.53,2.09,50,50,0,0,0-3.12-17.56l-1.6,1.48c2.16,8.87,1.88,14.55,1.22,17.82a32.4,32.4,0,0,0-8.11,5.42c-8.13-10.57-12.7-34.76-12.7-34.76L138.28,153A123.71,123.71,0,0,0,141,167.83c1.53,6.26,6,18,8.1,23.4a55.07,55.07,0,0,0-6.15,11.53,4.44,4.44,0,0,0-.78-.94c-5.3-4.79-15.26-27.42-15.26-27.42-2.41-5.26,1.27-19.07,1.27-19.07h-2.78l-1.24,12.08-7-7.63-1.27,1.06,7.42,9.53,3.81,12.09-10-11Z" style="fill: rgb(245, 245, 245); transform-origin: 150.195px 262.72px;" id="elsm06fvv881l" class="animable"></path><path d="M397,190.57a8.56,8.56,0,0,0,.25-1.65c.2-3.43,3.47-2.89,6.26-3.35,2.17-.37-3.59-5.86.8-7.63a3.81,3.81,0,0,0,2.11-1.48,2.48,2.48,0,0,0-.95-3,5.89,5.89,0,0,0-3.33-.83c-.72-.87-.13-2.18.56-3.07s1.54-1.9,1.28-3c-.4-1.66-2.71-1.72-4.38-1.39-.62-1-.6-2.25-.9-3.39s-1.21-2.33-2.37-2.18-1.77,1.37-2.85,1.62c-1.25.3-2.33-.81-3.31-1.64s-2.7-1.34-3.37-.25c-.41.65-.17,1.56-.59,2.21-.73,1.12-2.45.42-3.53-.37s-2.78-1.51-3.53-.41a4.93,4.93,0,0,0-.42,1.15c-.5,1.46-2.09,2.19-3.32,3.13s-2.21,2.81-1.17,4c.52.57,1.42.8,1.68,1.52.32.9-.6,1.71-1.33,2.32-1.21,1-1.43,4.12.17,5,.67.36,1.66.47,1.83,1.21s-.53,1.18-1,1.69a3.18,3.18,0,0,0,1,4.74c.38.18.85.33,1,.74a1.46,1.46,0,0,1-.1.89,5,5,0,0,0-.15,1.72.79.79,0,0,0,.21.54.89.89,0,0,0,.51.14c2.31.1,3.43-.71,4.84,1.3a1.67,1.67,0,0,0,.48.51,1.55,1.55,0,0,0,.64.16c1.59.13,2.63-.86,4.08-1.05,2-.25,2.45.79,4.22,1.62C395.07,193.28,396.42,192.47,397,190.57Z" style="fill: rgb(245, 245, 245); transform-origin: 390.109px 175.678px;" id="eludlualwkyc" class="animable"></path><path d="M370.3,187.69a7.25,7.25,0,0,0,.25-1.65c.21-3.43,3.48-2.89,6.26-3.35,2.18-.36-3.58-5.86.8-7.63a3.84,3.84,0,0,0,2.12-1.48,2.49,2.49,0,0,0-1-3,5.84,5.84,0,0,0-3.32-.83c-.72-.87-.14-2.18.55-3.07s1.54-1.9,1.28-3c-.39-1.66-2.71-1.72-4.38-1.39a12.28,12.28,0,0,1-.9-3.39c-.3-1.13-1.2-2.32-2.37-2.18s-1.77,1.37-2.84,1.62c-1.25.3-2.34-.81-3.32-1.64s-2.69-1.34-3.37-.25c-.4.65-.16,1.57-.58,2.21-.73,1.12-2.46.42-3.53-.37s-2.78-1.51-3.54-.41A4.5,4.5,0,0,0,352,159c-.51,1.46-2.09,2.19-3.33,3.13s-2.21,2.81-1.16,4c.51.57,1.42.8,1.67,1.52.32.9-.6,1.71-1.32,2.33-1.22,1-1.44,4.11.17,4.95.67.36,1.66.47,1.82,1.21s-.53,1.18-1,1.69a3.18,3.18,0,0,0,1,4.74c.39.18.86.34,1,.74a1.52,1.52,0,0,1-.09.89,4.54,4.54,0,0,0-.15,1.72.74.74,0,0,0,.2.54.82.82,0,0,0,.51.14c2.32.1,3.43-.71,4.84,1.3a1.7,1.7,0,0,0,.49.51,1.51,1.51,0,0,0,.63.16c1.59.13,2.63-.86,4.09-1.05,2-.25,2.44.79,4.22,1.62C368.42,190.4,369.78,189.6,370.3,187.69Z" style="fill: rgb(245, 245, 245); transform-origin: 363.389px 172.788px;" id="elhjlsx8fscsn" class="animable"></path><path d="M367.73,170.72a7.25,7.25,0,0,0,.25-1.65c.21-3.43,3.48-2.88,6.26-3.35,2.18-.36-3.58-5.86.81-7.63a3.81,3.81,0,0,0,2.11-1.48,2.49,2.49,0,0,0-1-3,5.89,5.89,0,0,0-3.33-.83c-.72-.87-.14-2.18.56-3.07s1.54-1.9,1.27-3c-.39-1.65-2.7-1.71-4.37-1.39a12,12,0,0,1-.91-3.39c-.3-1.13-1.2-2.32-2.36-2.18s-1.77,1.37-2.85,1.63c-1.25.29-2.33-.82-3.31-1.64s-2.7-1.35-3.38-.26c-.4.65-.16,1.57-.58,2.21-.73,1.12-2.46.42-3.53-.37s-2.78-1.51-3.53-.41a4.17,4.17,0,0,0-.42,1.15c-.51,1.46-2.09,2.19-3.32,3.13s-2.21,2.81-1.17,4c.52.56,1.42.79,1.68,1.51.32.9-.6,1.71-1.33,2.33-1.21,1-1.43,4.11.17,5,.67.35,1.66.46,1.82,1.2s-.52,1.18-1,1.69a3.18,3.18,0,0,0,1,4.74c.39.19.86.34,1,.74a1.45,1.45,0,0,1-.09.89,4.77,4.77,0,0,0-.15,1.72.61.61,0,0,0,.71.68c2.32.11,3.43-.71,4.85,1.3a1.21,1.21,0,0,0,1.12.67c1.59.13,2.63-.86,4.08-1.05,2-.25,2.44.79,4.22,1.62C365.86,173.44,367.21,172.63,367.73,170.72Z" style="fill: rgb(245, 245, 245); transform-origin: 360.818px 155.833px;" id="elgkt3qgv0kap" class="animable"></path><path d="M350.18,179.17a7.25,7.25,0,0,0,.25-1.65c.21-3.43,3.48-2.88,6.26-3.35,2.18-.36-3.58-5.86.8-7.63a3.87,3.87,0,0,0,2.12-1.47,2.49,2.49,0,0,0-1-3,5.84,5.84,0,0,0-3.32-.84c-.72-.87-.14-2.18.55-3.07s1.54-1.89,1.28-3c-.39-1.65-2.71-1.71-4.37-1.39a12,12,0,0,1-.91-3.38c-.3-1.14-1.2-2.33-2.37-2.19s-1.77,1.37-2.84,1.63c-1.25.29-2.34-.81-3.32-1.64s-2.69-1.35-3.37-.26c-.4.66-.16,1.57-.58,2.21-.73,1.12-2.46.43-3.53-.37s-2.78-1.5-3.54-.4a4.43,4.43,0,0,0-.41,1.14c-.51,1.47-2.09,2.2-3.33,3.13s-2.2,2.81-1.16,4c.51.56,1.42.79,1.67,1.51.32.9-.6,1.71-1.32,2.33-1.22,1-1.44,4.11.17,5,.67.35,1.66.46,1.82,1.2s-.53,1.18-1,1.69a3.18,3.18,0,0,0,1,4.74c.39.19.86.34,1,.74a1.56,1.56,0,0,1-.09.9,4.49,4.49,0,0,0-.15,1.71.74.74,0,0,0,.2.54.76.76,0,0,0,.51.14c2.32.11,3.43-.71,4.84,1.3a1.5,1.5,0,0,0,.49.51,1.37,1.37,0,0,0,.63.16c1.59.13,2.63-.86,4.09-1,2-.26,2.44.78,4.22,1.61C348.3,181.89,349.66,181.08,350.18,179.17Z" style="fill: rgb(245, 245, 245); transform-origin: 343.269px 164.288px;" id="el390e9fgmo0y" class="animable"></path><path d="M332.44,175.27a7.25,7.25,0,0,0,.25-1.65c.21-3.43,3.48-2.89,6.26-3.35,2.18-.36-3.58-5.86.8-7.63a3.84,3.84,0,0,0,2.12-1.48,2.5,2.5,0,0,0-.95-3,5.89,5.89,0,0,0-3.33-.83c-.72-.87-.14-2.18.55-3.07s1.54-1.9,1.28-3c-.39-1.66-2.7-1.72-4.37-1.39a12,12,0,0,1-.91-3.39c-.3-1.13-1.2-2.33-2.37-2.18s-1.77,1.37-2.84,1.62c-1.25.3-2.33-.81-3.32-1.64s-2.69-1.34-3.37-.25c-.4.65-.16,1.56-.58,2.21-.73,1.12-2.46.42-3.53-.37s-2.78-1.51-3.54-.41a4.5,4.5,0,0,0-.41,1.15c-.51,1.46-2.09,2.19-3.32,3.13s-2.21,2.81-1.17,3.95c.51.57,1.42.8,1.67,1.52.32.9-.6,1.71-1.32,2.33-1.22,1-1.43,4.11.17,5,.67.36,1.66.47,1.82,1.21s-.52,1.18-1,1.69a3.18,3.18,0,0,0,1,4.74c.39.18.86.34,1,.74a1.53,1.53,0,0,1-.09.89,4.54,4.54,0,0,0-.15,1.72.79.79,0,0,0,.21.54.84.84,0,0,0,.5.14c2.32.1,3.43-.71,4.84,1.3a1.7,1.7,0,0,0,.49.51,1.51,1.51,0,0,0,.64.16c1.59.13,2.63-.86,4.08-1,2-.25,2.44.79,4.22,1.62C330.56,178,331.92,177.17,332.44,175.27Z" style="fill: rgb(245, 245, 245); transform-origin: 325.555px 160.384px;" id="elcyvxwt825mg" class="animable"></path><path d="M332.21,194.25a6.22,6.22,0,0,0,.2-1.3c.16-2.7,2.74-2.28,4.93-2.64,1.71-.29-2.82-4.62.63-6a3.05,3.05,0,0,0,1.67-1.16,2,2,0,0,0-.76-2.4,4.61,4.61,0,0,0-2.62-.65c-.56-.69-.1-1.72.44-2.42s1.21-1.49,1-2.36c-.31-1.3-2.13-1.34-3.45-1.09a9.48,9.48,0,0,1-.71-2.67c-.24-.89-.95-1.83-1.87-1.72s-1.39,1.09-2.24,1.29-1.83-.64-2.61-1.3-2.12-1.06-2.65-.2c-.32.52-.13,1.24-.46,1.74-.57.88-1.93.34-2.78-.29s-2.19-1.18-2.78-.32a4,4,0,0,0-.33.9c-.4,1.16-1.65,1.73-2.62,2.47s-1.74,2.21-.91,3.11c.4.45,1.11.63,1.31,1.2s-.47,1.34-1,1.83c-1,.81-1.13,3.24.13,3.9.53.28,1.31.37,1.44,1s-.41.93-.77,1.33a2.51,2.51,0,0,0,.77,3.73c.3.15.68.27.79.59a1.22,1.22,0,0,1-.07.7,3.63,3.63,0,0,0-.13,1.35.64.64,0,0,0,.17.43.69.69,0,0,0,.4.11c1.82.08,2.7-.56,3.81,1a1.32,1.32,0,0,0,.38.4,1.24,1.24,0,0,0,.5.13c1.26.1,2.07-.68,3.22-.83,1.59-.2,1.92.62,3.32,1.28C330.73,196.38,331.8,195.75,332.21,194.25Z" style="fill: rgb(245, 245, 245); transform-origin: 326.798px 182.503px;" id="elowg8yp78lf" class="animable"></path><path d="M322.27,187.69a7.25,7.25,0,0,0,.25-1.65c.21-3.43,3.48-2.89,6.26-3.35,2.18-.36-3.58-5.86.8-7.63a3.84,3.84,0,0,0,2.12-1.48,2.49,2.49,0,0,0-1-3,5.85,5.85,0,0,0-3.33-.83c-.71-.87-.13-2.18.56-3.07s1.54-1.9,1.28-3c-.39-1.66-2.71-1.72-4.38-1.39a12.28,12.28,0,0,1-.9-3.39c-.3-1.13-1.2-2.32-2.37-2.18s-1.77,1.37-2.84,1.62c-1.25.3-2.34-.81-3.32-1.64s-2.69-1.34-3.37-.25c-.4.65-.16,1.57-.58,2.21-.73,1.12-2.46.42-3.53-.37s-2.78-1.51-3.54-.41A4.5,4.5,0,0,0,304,159c-.51,1.46-2.09,2.19-3.33,3.13s-2.21,2.81-1.16,4c.51.57,1.42.8,1.67,1.52.32.9-.6,1.71-1.32,2.33-1.22,1-1.44,4.11.17,4.95.67.36,1.65.47,1.82,1.21s-.53,1.18-1,1.69a3.18,3.18,0,0,0,1,4.74c.39.18.86.34,1,.74a1.52,1.52,0,0,1-.09.89,4.54,4.54,0,0,0-.15,1.72.74.74,0,0,0,.2.54.82.82,0,0,0,.51.14c2.32.1,3.43-.71,4.84,1.3a1.7,1.7,0,0,0,.49.51,1.51,1.51,0,0,0,.63.16c1.59.13,2.63-.86,4.09-1.05,2-.25,2.44.79,4.22,1.62C320.39,190.4,321.75,189.6,322.27,187.69Z" style="fill: rgb(245, 245, 245); transform-origin: 315.374px 172.788px;" id="elqn6ow4gwzp7" class="animable"></path><path d="M350.18,158.3a7.25,7.25,0,0,0,.25-1.65c.21-3.43,3.48-2.89,6.26-3.35,2.18-.36-3.58-5.86.8-7.63a3.84,3.84,0,0,0,2.12-1.48,2.49,2.49,0,0,0-1-3,5.84,5.84,0,0,0-3.32-.83c-.72-.87-.14-2.18.55-3.07s1.54-1.9,1.28-3c-.39-1.65-2.71-1.71-4.37-1.39a12,12,0,0,1-.91-3.39c-.3-1.13-1.2-2.32-2.37-2.18s-1.77,1.37-2.84,1.63c-1.25.29-2.34-.82-3.32-1.65s-2.69-1.34-3.37-.25c-.4.65-.16,1.57-.58,2.21-.73,1.12-2.46.42-3.53-.37s-2.78-1.51-3.54-.41a4.5,4.5,0,0,0-.41,1.15c-.51,1.46-2.09,2.19-3.33,3.13s-2.2,2.81-1.16,4c.51.56,1.42.79,1.67,1.51.32.9-.6,1.71-1.32,2.33-1.22,1-1.44,4.11.17,5,.67.36,1.66.47,1.82,1.21s-.53,1.18-1,1.69a3.18,3.18,0,0,0,1,4.74c.39.19.86.34,1,.74a1.52,1.52,0,0,1-.09.89,4.56,4.56,0,0,0-.15,1.72.74.74,0,0,0,.2.54.82.82,0,0,0,.51.14c2.32.11,3.43-.71,4.84,1.3a1.7,1.7,0,0,0,.49.51,1.51,1.51,0,0,0,.63.16c1.59.13,2.63-.86,4.09-1,2-.25,2.44.79,4.22,1.62C348.3,161,349.66,160.21,350.18,158.3Z" style="fill: rgb(245, 245, 245); transform-origin: 343.269px 143.415px;" id="elcxj0s55syoo" class="animable"></path><path d="M373,159.47a8.67,8.67,0,0,0,.25-1.66c.2-3.42,3.48-2.88,6.26-3.34,2.18-.37-3.58-5.86.8-7.64a3.82,3.82,0,0,0,2.12-1.47,2.49,2.49,0,0,0-1-3,6,6,0,0,0-3.33-.84c-.71-.87-.13-2.17.56-3.06s1.54-1.9,1.28-3c-.4-1.65-2.71-1.71-4.38-1.39a12.31,12.31,0,0,1-.9-3.38c-.3-1.14-1.2-2.33-2.37-2.19s-1.77,1.38-2.84,1.63c-1.25.3-2.34-.81-3.32-1.64s-2.69-1.35-3.37-.25c-.4.65-.16,1.56-.58,2.21-.73,1.11-2.46.42-3.53-.37s-2.78-1.51-3.54-.41a4.43,4.43,0,0,0-.41,1.14c-.51,1.47-2.09,2.2-3.33,3.14s-2.21,2.8-1.16,4c.51.57,1.42.79,1.67,1.52.32.9-.6,1.7-1.33,2.32-1.21,1-1.43,4.12.18,5,.67.35,1.65.46,1.82,1.2s-.53,1.18-1,1.7a3.18,3.18,0,0,0,1,4.74c.39.18.86.33,1,.73a1.56,1.56,0,0,1-.09.9,4.75,4.75,0,0,0-.16,1.72.77.77,0,0,0,.21.53.83.83,0,0,0,.51.15c2.31.1,3.43-.72,4.84,1.3a1.8,1.8,0,0,0,.48.51,1.59,1.59,0,0,0,.64.16c1.59.13,2.63-.87,4.09-1.05,2-.26,2.44.78,4.22,1.62C371.09,162.18,372.45,161.37,373,159.47Z" style="fill: rgb(245, 245, 245); transform-origin: 366.089px 144.582px;" id="elaq6o8c1y2po" class="animable"></path><path d="M386.81,168.79a7.25,7.25,0,0,0,.25-1.65c.21-3.43,3.48-2.88,6.26-3.35,2.18-.36-3.58-5.86.8-7.63a3.87,3.87,0,0,0,2.12-1.47,2.51,2.51,0,0,0-.95-3.05,5.89,5.89,0,0,0-3.33-.83c-.72-.87-.14-2.18.55-3.07s1.55-1.89,1.28-3c-.39-1.65-2.7-1.71-4.37-1.39a12,12,0,0,1-.91-3.39c-.3-1.13-1.2-2.32-2.37-2.18s-1.76,1.37-2.84,1.63c-1.25.29-2.33-.81-3.32-1.64s-2.69-1.35-3.37-.26c-.4.66-.16,1.57-.58,2.21-.73,1.12-2.46.43-3.53-.37s-2.78-1.5-3.54-.41a4.5,4.5,0,0,0-.41,1.15c-.51,1.46-2.09,2.19-3.32,3.13s-2.21,2.81-1.17,4c.51.56,1.42.79,1.68,1.51.31.9-.61,1.71-1.33,2.33-1.22,1-1.43,4.11.17,5,.67.35,1.66.46,1.82,1.2s-.52,1.18-1,1.69a3.18,3.18,0,0,0,1,4.74c.39.19.86.34,1,.74a1.56,1.56,0,0,1-.09.9,4.49,4.49,0,0,0-.15,1.71.79.79,0,0,0,.21.54.72.72,0,0,0,.5.14c2.32.11,3.43-.71,4.85,1.3a1.56,1.56,0,0,0,.48.51,1.51,1.51,0,0,0,.64.16c1.59.13,2.63-.86,4.08-1,2-.26,2.44.78,4.22,1.61C384.93,171.51,386.29,170.7,386.81,168.79Z" style="fill: rgb(245, 245, 245); transform-origin: 379.932px 153.881px;" id="elg6u4tt6yda6" class="animable"></path><path d="M382.62,180.58s-5.79,8.19-7.79,10.78-12,18.76-13.33,29.46c-.15,1.14-.29,2.12-.43,3,4.29,28.34,3.62,142.79,3.47,151.67H345.33c2.1-87.68,4.33-164.11,3.9-166.9-.45-3-6.14-14.22-14.92-18.84s-16.37-19.93-16.37-19.93h2.8s5.19,9.38,12.57,14.57a27.34,27.34,0,0,0,3.32,2,47.25,47.25,0,0,1,2.94-16.54l1.51,1.4c-2,8.35-1.77,13.71-1.15,16.78a30.41,30.41,0,0,1,7.64,5.11c7.66-10,12-32.74,12-32.74l2,1.07a115.74,115.74,0,0,1-2.54,14c-1.43,5.9-5.66,17-7.62,22a52.05,52.05,0,0,1,5.78,10.87,4.33,4.33,0,0,1,.74-.89c5-4.51,14.38-25.83,14.38-25.83,2.27-5-1.2-18-1.2-18h2.62L374.83,175l6.59-7.18,1.2,1-7,9L372,189.17l9.38-10.39Z" style="fill: rgb(245, 245, 245); transform-origin: 350.28px 267.945px;" id="el2tryej2wsl9" class="animable"></path><rect x="84.21" y="297.97" width="334.93" height="11.35" style="fill: rgb(224, 224, 224); transform-origin: 251.675px 303.645px;" id="eli2k3x5lqavb" class="animable"></rect><polygon points="92.09 368.47 76.32 368.47 76.32 268.89 84.21 263.28 92.09 268.89 92.09 368.47" style="fill: rgb(230, 230, 230); transform-origin: 84.205px 315.875px;" id="elnubkhaluvw" class="animable"></polygon><polygon points="120.01 368.47 104.23 368.47 104.23 268.89 112.12 263.28 120.01 268.89 120.01 368.47" style="fill: rgb(230, 230, 230); transform-origin: 112.12px 315.875px;" id="eleroftix1ezf" class="animable"></polygon><polygon points="147.92 368.47 132.14 368.47 132.14 268.89 140.03 263.28 147.92 268.89 147.92 368.47" style="fill: rgb(230, 230, 230); transform-origin: 140.03px 315.875px;" id="eldc0o6i3jhqb" class="animable"></polygon><polygon points="175.83 368.47 160.06 368.47 160.06 268.89 167.94 263.28 175.83 268.89 175.83 368.47" style="fill: rgb(230, 230, 230); transform-origin: 167.945px 315.875px;" id="elmrs97xenh4" class="animable"></polygon><polygon points="203.74 368.47 187.97 368.47 187.97 268.89 195.85 263.28 203.74 268.89 203.74 368.47" style="fill: rgb(230, 230, 230); transform-origin: 195.855px 315.875px;" id="eldl8e910ia" class="animable"></polygon><polygon points="231.65 368.47 215.88 368.47 215.88 268.89 223.76 263.28 231.65 268.89 231.65 368.47" style="fill: rgb(230, 230, 230); transform-origin: 223.765px 315.875px;" id="el6njq51iqnco" class="animable"></polygon><polygon points="259.56 368.47 243.79 368.47 243.79 268.89 251.68 263.28 259.56 268.89 259.56 368.47" style="fill: rgb(230, 230, 230); transform-origin: 251.675px 315.875px;" id="elyua5d2yb93g" class="animable"></polygon><polygon points="287.47 368.47 271.7 368.47 271.7 268.89 279.59 263.28 287.47 268.89 287.47 368.47" style="fill: rgb(230, 230, 230); transform-origin: 279.585px 315.875px;" id="ela99j9zz0oe6" class="animable"></polygon><polygon points="315.38 368.47 299.61 368.47 299.61 268.89 307.5 263.28 315.38 268.89 315.38 368.47" style="fill: rgb(230, 230, 230); transform-origin: 307.495px 315.875px;" id="eltrqa9h1kivi" class="animable"></polygon><polygon points="343.3 368.47 327.52 368.47 327.52 268.89 335.41 263.28 343.3 268.89 343.3 368.47" style="fill: rgb(230, 230, 230); transform-origin: 335.41px 315.875px;" id="el05dpzibupx22" class="animable"></polygon><polygon points="371.21 368.47 355.43 368.47 355.43 268.89 363.32 263.28 371.21 268.89 371.21 368.47" style="fill: rgb(230, 230, 230); transform-origin: 363.32px 315.875px;" id="elzdaf8hc1oml" class="animable"></polygon><polygon points="399.12 368.47 383.35 368.47 383.35 268.89 391.23 263.28 399.12 268.89 399.12 368.47" style="fill: rgb(230, 230, 230); transform-origin: 391.235px 315.875px;" id="elbsmxmwtn484" class="animable"></polygon><polygon points="427.03 368.47 411.26 368.47 411.26 268.89 419.14 263.28 427.03 268.89 427.03 368.47" style="fill: rgb(230, 230, 230); transform-origin: 419.145px 315.875px;" id="eldbx5pg8mygu" class="animable"></polygon><path d="M415,369.56s2.62-8.75-2.67-10.49-8.41-5.84-8.23-10.46-5.39-9.13-9.56-4.79-3.61-3.34-9.17-5.2-10.27,2.66-8.75,6.79-4,6.71-10.53,3.2-13.8,2.88-12.41,7.88.25,5.56-3.9,3.89-11.6,3.06-9,9.18S415,369.56,415,369.56Z" style="fill: rgb(224, 224, 224); transform-origin: 377.945px 355.235px;" id="elkgssx9ik2n" class="animable"></path><path d="M134.38,368.3s2-6.79-2.07-8.14-6.53-4.53-6.4-8.12-4.18-7.09-7.41-3.72-2.81-2.59-7.12-4-8,2.07-6.8,5.28-3.07,5.21-8.17,2.48-10.71,2.23-9.63,6.12.19,4.32-3,3-9,2.37-7,7.12S134.38,368.3,134.38,368.3Z" style="fill: rgb(224, 224, 224); transform-origin: 105.621px 357.212px;" id="el31b75jnjpg7" class="animable"></path><path d="M235.83,369.11c4.67-4.68.46-12.62-4.21-13.55s-9.37-9.16-9.59-14.39-8.63-21.34-21.71-11.39-9.11,1.46-18.58-1.33-15.43,5.24-11.28,11.27c0,0-9.5-2.39-13.42,6.49s0,14.39,0,14.39-17.88-.53-16.27,10.53S235.83,369.11,235.83,369.11Z" style="fill: rgb(224, 224, 224); transform-origin: 189.266px 351.086px;" id="elrsqnnu2s23b" class="animable"></path><path d="M69.64,369.39v12.8H430.36v-12.8a3.82,3.82,0,0,0-3.78-4H73.42A3.82,3.82,0,0,0,69.64,369.39Z" style="fill: rgb(235, 235, 235); transform-origin: 250px 373.79px;" id="elyw81w0cvzrr" class="animable"></path><rect x="387.37" y="365.37" width="22.43" height="16.82" style="fill: rgb(245, 245, 245); transform-origin: 398.585px 373.78px;" id="el8hmpcm7fdcq" class="animable"></rect><rect x="345.32" y="365.37" width="21.49" height="16.82" style="fill: rgb(245, 245, 245); transform-origin: 356.065px 373.78px;" id="elsg9aljfiecf" class="animable"></rect><rect x="302.33" y="365.37" width="22.43" height="16.82" style="fill: rgb(245, 245, 245); transform-origin: 313.545px 373.78px;" id="elcvlhdz2oixd" class="animable"></rect><rect x="260.28" y="365.37" width="21.49" height="16.82" style="fill: rgb(245, 245, 245); transform-origin: 271.025px 373.78px;" id="elpruiow71t9" class="animable"></rect><rect x="218.23" y="365.37" width="21.49" height="16.82" style="fill: rgb(245, 245, 245); transform-origin: 228.975px 373.78px;" id="elq0udvmof0np" class="animable"></rect><rect x="175.24" y="365.37" width="22.43" height="16.82" style="fill: rgb(245, 245, 245); transform-origin: 186.455px 373.78px;" id="elpwanwmmje9" class="animable"></rect><rect x="133.19" y="365.37" width="21.49" height="16.82" style="fill: rgb(245, 245, 245); transform-origin: 143.935px 373.78px;" id="elhz6twxl9k2p" class="animable"></rect><rect x="90.2" y="365.37" width="22.43" height="16.82" style="fill: rgb(245, 245, 245); transform-origin: 101.415px 373.78px;" id="el8f3punqdz4s" class="animable"></rect></g><g id="freepik--Shadow--inject-1" class="animable" style="transform-origin: 250px 416.24px;"><ellipse id="freepik--path--inject-1" cx="250" cy="416.24" rx="193.89" ry="11.32" style="fill: rgb(245, 245, 245); transform-origin: 250px 416.24px;" class="animable"></ellipse></g><g id="freepik--trash-can-1--inject-1" class="animable" style="transform-origin: 295.664px 313.306px;"><polygon points="322.96 418.15 266.71 418.15 265.92 408.32 323.75 408.32 322.96 418.15" style="fill: rgb(197, 63, 63); transform-origin: 294.835px 413.235px;" id="ell93air1ottd" class="animable"></polygon><g id="elqwvonks6obj"><polygon points="322.96 418.15 266.71 418.15 265.92 408.32 323.75 408.32 322.96 418.15" style="opacity: 0.2; isolation: isolate; transform-origin: 294.835px 413.235px;" class="animable"></polygon></g><g id="elju9oe9geyde"><polygon points="317.95 418.15 266.71 418.15 265.92 408.32 318.6 408.32 317.95 418.15" style="opacity: 0.2; isolation: isolate; transform-origin: 292.26px 413.235px;" class="animable"></polygon></g><path d="M301.37,411.55h-2.76c-1.34,0-2.43,1.68-2.43,3.76s1.09,3.76,2.43,3.76h2.76c1.34,0,2.43-1.68,2.43-3.76S302.71,411.55,301.37,411.55Z" style="fill: rgb(38, 50, 56); transform-origin: 299.99px 415.31px;" id="elruph9zgojed" class="animable"></path><g id="elbrftrtst61s"><path d="M303.8,415.31c0,2.08-1.09,3.76-2.43,3.76s-2.43-1.68-2.43-3.76,1.09-3.76,2.43-3.76S303.8,413.23,303.8,415.31Z" style="fill: rgb(255, 255, 255); opacity: 0.2; isolation: isolate; transform-origin: 301.37px 415.31px;" class="animable"></path></g><path d="M257,411.55h-2.76c-1.34,0-2.43,1.68-2.43,3.76s1.09,3.76,2.43,3.76H257c1.34,0,2.42-1.68,2.42-3.76S258.29,411.55,257,411.55Z" style="fill: rgb(38, 50, 56); transform-origin: 255.615px 415.31px;" id="elvqhn3mp315" class="animable"></path><g id="elpirplikg5wh"><path d="M259.37,415.31c0,2.08-1.08,3.76-2.42,3.76s-2.43-1.68-2.43-3.76,1.09-3.76,2.43-3.76S259.37,413.23,259.37,415.31Z" style="fill: rgb(255, 255, 255); opacity: 0.2; isolation: isolate; transform-origin: 256.945px 415.31px;" class="animable"></path></g><path d="M327.86,267.15H284a3.69,3.69,0,0,1-3.82-4.57l10-48.73a6,6,0,0,1,5.69-4.57h43.86c7.3,0,12.05,5.68,10.61,12.69l-6.68,32.49C342.25,261.47,335.16,267.15,327.86,267.15Z" style="fill: rgb(197, 63, 63); transform-origin: 315.334px 238.219px;" id="elathqy9q0wht" class="animable"></path><g id="el8wf4q0rql56"><path d="M327.86,267.15H284a3.69,3.69,0,0,1-3.82-4.57l10-48.73a6,6,0,0,1,5.69-4.57h43.86c7.3,0,12.05,5.68,10.61,12.69l-6.68,32.49C342.25,261.47,335.16,267.15,327.86,267.15Z" style="fill: rgb(255, 255, 255); opacity: 0.2; isolation: isolate; transform-origin: 315.334px 238.219px;" class="animable"></path></g><path d="M331.08,268.88H275.49a3.68,3.68,0,0,1-3.82-4.56l10.75-52.21a6,6,0,0,1,5.69-4.56H343.7a3.68,3.68,0,0,1,3.82,4.56l-10.74,52.21A6,6,0,0,1,331.08,268.88Z" style="fill: rgb(197, 63, 63); transform-origin: 309.595px 238.215px;" id="el2vqmbiqyzxp" class="animable"></path><g id="el3majhpw408q"><path d="M345.67,212.11l-1,4.85-9.75,47.36a3.68,3.68,0,0,1-3.48,2.8H275.86a2.27,2.27,0,0,1-2.35-2.8l10.75-52.21a3.68,3.68,0,0,1,3.49-2.79h55.59A2.24,2.24,0,0,1,345.67,212.11Z" style="opacity: 0.2; isolation: isolate; transform-origin: 309.593px 238.219px;" class="animable"></path></g><g id="eljmzpc238z89"><path d="M345.67,212.11l-1,4.85c-18-.35-52-.85-52.84.22-1.09,1.45-16,49.94-16,49.94a2.27,2.27,0,0,1-2.35-2.8l10.75-52.21a3.68,3.68,0,0,1,3.49-2.79h55.59A2.24,2.24,0,0,1,345.67,212.11Z" style="opacity: 0.2; isolation: isolate; transform-origin: 309.578px 238.218px;" class="animable"></path></g><path d="M332.93,272l-4.7,136.39a4.85,4.85,0,0,1-4.86,4.69H251.63a4.84,4.84,0,0,1-4.85-4.69L242.09,272Z" style="fill: rgb(197, 63, 63); transform-origin: 287.51px 342.54px;" id="elw5kk5awvd3" class="animable"></path><g id="elnf3hqi8y1j"><path d="M332.93,272l-4.7,136.39a4.85,4.85,0,0,1-4.86,4.69H306.85a4.85,4.85,0,0,1-4.85-4.69L297.31,272Z" style="opacity: 0.2; isolation: isolate; transform-origin: 315.12px 342.54px;" class="animable"></path></g><path d="M261.52,333l3.64-6.3.95.57-1.24-4.85L260,323.66l1.08.64-3.67,6.35a6.19,6.19,0,0,0,5.36,9.28h4.72l0-4.72h-4.76A1.46,1.46,0,0,1,261.52,333Z" style="fill: rgb(255, 255, 255); transform-origin: 262.037px 331.175px;" id="elkyst2x19rns" class="animable"></path><path d="M271.6,317a1.46,1.46,0,0,1,1.27.74l3.95,6.83-1,.56,4.84,1.3,1.3-4.84-1.09.63L277,315.4a6.18,6.18,0,0,0-10.71,0l-2.71,4.69,4.06,2.4,2.74-4.73A1.45,1.45,0,0,1,271.6,317Z" style="fill: rgb(255, 255, 255); transform-origin: 272.77px 319.367px;" id="el9tqsrqydlk" class="animable"></path><path d="M285.76,330.65l-2.34-4.06-4.11,2.32,2.37,4.1a1.47,1.47,0,0,1-1.28,2.2h-7.26v-1.12l-3.54,3.54,3.54,3.54v-1.24h7.26a6.19,6.19,0,0,0,5.36-9.28Z" style="fill: rgb(255, 255, 255); transform-origin: 278.093px 333.88px;" id="el2rv64njt166" class="animable"></path><rect x="240.73" y="268.33" width="94.14" height="11.43" rx="1.56" style="fill: rgb(197, 63, 63); transform-origin: 287.8px 274.045px;" id="elu906j3my0f8" class="animable"></rect><g id="el57zdyfbpn32"><rect x="240.73" y="268.33" width="59.16" height="11.43" rx="1.56" style="fill: rgb(255, 255, 255); opacity: 0.2; isolation: isolate; transform-origin: 270.31px 274.045px;" class="animable"></rect></g></g><g id="freepik--trash-can-2--inject-1" class="animable" style="transform-origin: 361.43px 335.42px;"><path d="M381.82,260H342.37l1.95-2.59a14.24,14.24,0,0,1,11.31-5.64h12.93a14.22,14.22,0,0,1,11.3,5.64Zm-33.55-2.76h27.65a11.47,11.47,0,0,0-7.36-2.7H355.63A11.45,11.45,0,0,0,348.27,257.2Z" style="fill: rgb(38, 50, 56); transform-origin: 362.095px 255.885px;" id="elmbsvmisnh9" class="animable"></path><path d="M406.56,270.37v3.44H317.14v-3.44a14.7,14.7,0,0,1,14.71-14.69h60A14.7,14.7,0,0,1,406.56,270.37Z" style="fill: rgb(38, 50, 56); transform-origin: 361.85px 264.745px;" id="elhovqavzb039" class="animable"></path><g id="elbmgmezdqhkt"><path d="M406.56,270.37v3.44H372.37v-3.44a14.7,14.7,0,0,1,14.7-14.69h4.79A14.7,14.7,0,0,1,406.56,270.37Z" style="opacity: 0.2; isolation: isolate; transform-origin: 389.465px 264.745px;" class="animable"></path></g><polygon points="396.59 418.15 340.34 418.15 339.55 408.32 397.38 408.32 396.59 418.15" style="fill: rgb(38, 50, 56); transform-origin: 368.465px 413.235px;" id="elf3ibbctfb2" class="animable"></polygon><g id="elgk0z37r6ni"><polygon points="396.59 418.15 340.34 418.15 339.55 408.32 397.38 408.32 396.59 418.15" style="opacity: 0.2; isolation: isolate; transform-origin: 368.465px 413.235px;" class="animable"></polygon></g><g id="el6d22uzitffv"><polygon points="391.58 418.15 340.34 418.15 339.55 408.32 392.23 408.32 391.58 418.15" style="opacity: 0.2; isolation: isolate; transform-origin: 365.89px 413.235px;" class="animable"></polygon></g><path d="M375,411.55h-2.76c-1.34,0-2.43,1.68-2.43,3.76s1.09,3.76,2.43,3.76H375c1.34,0,2.42-1.68,2.42-3.76S376.34,411.55,375,411.55Z" style="fill: rgb(38, 50, 56); transform-origin: 373.615px 415.31px;" id="el41ij5mopgk7" class="animable"></path><g id="elo4oianansm"><path d="M377.42,415.31c0,2.08-1.08,3.76-2.42,3.76s-2.43-1.68-2.43-3.76,1.09-3.76,2.43-3.76S377.42,413.23,377.42,415.31Z" style="fill: rgb(255, 255, 255); opacity: 0.2; isolation: isolate; transform-origin: 374.995px 415.31px;" class="animable"></path></g><path d="M330.58,411.55h-2.76c-1.34,0-2.43,1.68-2.43,3.76s1.09,3.76,2.43,3.76h2.76c1.34,0,2.42-1.68,2.42-3.76S331.92,411.55,330.58,411.55Z" style="fill: rgb(38, 50, 56); transform-origin: 329.195px 415.31px;" id="elpj6sltwfx2" class="animable"></path><g id="elcjupcb2uxbo"><path d="M333,415.31c0,2.08-1.08,3.76-2.42,3.76s-2.43-1.68-2.43-3.76,1.09-3.76,2.43-3.76S333,413.23,333,415.31Z" style="fill: rgb(255, 255, 255); opacity: 0.2; isolation: isolate; transform-origin: 330.575px 415.31px;" class="animable"></path></g><path d="M406.56,272l-4.7,136.39a4.85,4.85,0,0,1-4.86,4.69H325.26a4.84,4.84,0,0,1-4.85-4.69L315.72,272Z" style="fill: rgb(38, 50, 56); transform-origin: 361.14px 342.54px;" id="ele2hgumksnmm" class="animable"></path><g id="el66g0660ml3v"><path d="M406.56,272l-4.7,136.39a4.85,4.85,0,0,1-4.86,4.69H380.48a4.85,4.85,0,0,1-4.85-4.69L370.94,272Z" style="opacity: 0.2; isolation: isolate; transform-origin: 388.75px 342.54px;" class="animable"></path></g><path d="M335.15,333l3.64-6.3.95.57-1.24-4.85-4.85,1.23,1.08.64-3.67,6.35a6.19,6.19,0,0,0,5.36,9.28h4.72l0-4.72h-4.76A1.46,1.46,0,0,1,335.15,333Z" style="fill: rgb(255, 255, 255); transform-origin: 335.687px 331.17px;" id="elt36olo1lki" class="animable"></path><path d="M345.23,317a1.46,1.46,0,0,1,1.27.74l3.94,6.83-1,.56,4.84,1.3,1.3-4.84-1.09.63-3.95-6.84a6.18,6.18,0,0,0-10.71,0l-2.71,4.69,4.06,2.4,2.74-4.73A1.45,1.45,0,0,1,345.23,317Z" style="fill: rgb(255, 255, 255); transform-origin: 346.35px 319.357px;" id="ely3nc3u1csbe" class="animable"></path><path d="M359.39,330.65l-2.34-4.06-4.11,2.32,2.37,4.1a1.47,1.47,0,0,1-1.28,2.2h-7.26v-1.12l-3.54,3.54,3.54,3.54v-1.24H354a6.19,6.19,0,0,0,5.36-9.28Z" style="fill: rgb(255, 255, 255); transform-origin: 351.708px 333.88px;" id="elziz9rwe9xpm" class="animable"></path><rect x="314.36" y="268.33" width="94.14" height="11.43" rx="1.56" style="fill: rgb(38, 50, 56); transform-origin: 361.43px 274.045px;" id="elx1g2aufbqp" class="animable"></rect><g id="elkzegp0k7hu9"><rect x="314.36" y="268.33" width="59.16" height="11.43" rx="1.56" style="fill: rgb(255, 255, 255); opacity: 0.2; isolation: isolate; transform-origin: 343.94px 274.045px;" class="animable"></rect></g></g><g id="freepik--trash-bag--inject-1" class="animable" style="transform-origin: 145.469px 357.487px;"><path d="M150.31,303.9l1-3.09-5.4-1.73-1,3.08a3.09,3.09,0,0,1-1.66,1.88h0a3.09,3.09,0,0,0-1.67,1.87l-5.69,17.73A1.64,1.64,0,0,0,137,325.7l6.14,2a1.64,1.64,0,0,0,2.07-1.06l5.69-17.73a3.14,3.14,0,0,0-.27-2.49h0A3.1,3.1,0,0,1,150.31,303.9Z" style="fill: rgb(197, 63, 63); transform-origin: 143.563px 313.43px;" id="elyltccmudmf" class="animable"></path><g id="el0ipkmhvw8fb6"><path d="M150.31,303.9l1-3.09-5.4-1.73-1,3.08a3.09,3.09,0,0,1-1.66,1.88h0a3.09,3.09,0,0,0-1.67,1.87l-5.69,17.73A1.64,1.64,0,0,0,137,325.7l6.14,2a1.64,1.64,0,0,0,2.07-1.06l5.69-17.73a3.14,3.14,0,0,0-.27-2.49h0A3.1,3.1,0,0,1,150.31,303.9Z" style="opacity: 0.2; isolation: isolate; transform-origin: 143.563px 313.43px;" class="animable"></path></g><g id="el57cufeefk18"><path d="M149.48,313.14l1.37-4.26a3.14,3.14,0,0,0-.27-2.49,3.1,3.1,0,0,1-.27-2.49l1-3.09-5.4-1.73-1,3.08a3.09,3.09,0,0,1-1.66,1.88,3.09,3.09,0,0,0-1.67,1.87l-1.37,4.26Z" style="fill: rgb(255, 255, 255); opacity: 0.5; isolation: isolate; transform-origin: 145.76px 306.11px;" class="animable"></path></g><g id="el6gm5tv7n7u7"><path d="M138.22,316.37l-2.33,7.27A1.64,1.64,0,0,0,137,325.7l6.14,2a1.64,1.64,0,0,0,2.07-1.06l2.33-7.27Z" style="fill: rgb(255, 255, 255); opacity: 0.6; isolation: isolate; transform-origin: 141.678px 322.075px;" class="animable"></path></g><g id="el2rmsghednmg"><rect x="145.14" y="299.04" width="6.69" height="2.55" rx="0.53" style="fill: rgb(197, 63, 63); transform-origin: 148.485px 300.315px; transform: rotate(17.78deg);" class="animable"></rect></g><path d="M132.13,309l1-3.09-5.4-1.73-1,3.08a3.07,3.07,0,0,1-1.66,1.87h0A3.08,3.08,0,0,0,123.4,311l-5.69,17.73a1.64,1.64,0,0,0,1.06,2.06l6.14,2a1.64,1.64,0,0,0,2.07-1.06L132.67,314a3.14,3.14,0,0,0-.27-2.49h0A3.1,3.1,0,0,1,132.13,309Z" style="fill: rgb(197, 63, 63); transform-origin: 125.381px 318.525px;" id="elrowv7ml005" class="animable"></path><g id="elrbbtrxpldx"><path d="M132.13,309l1-3.09-5.4-1.73-1,3.08a3.07,3.07,0,0,1-1.66,1.87h0A3.08,3.08,0,0,0,123.4,311l-5.69,17.73a1.64,1.64,0,0,0,1.06,2.06l6.14,2a1.64,1.64,0,0,0,2.07-1.06L132.67,314a3.14,3.14,0,0,0-.27-2.49h0A3.1,3.1,0,0,1,132.13,309Z" style="opacity: 0.2; isolation: isolate; transform-origin: 125.381px 318.525px;" class="animable"></path></g><g id="elcb7vj1m8cxk"><path d="M131.3,318.21l1.36-4.26a3.1,3.1,0,0,0-.26-2.49,3.1,3.1,0,0,1-.27-2.49l1-3.09-5.4-1.73-1,3.08a3.07,3.07,0,0,1-1.66,1.87A3.09,3.09,0,0,0,123.4,311L122,315.24Z" style="fill: rgb(255, 255, 255); opacity: 0.5; isolation: isolate; transform-origin: 127.565px 311.18px;" class="animable"></path></g><g id="ele64qgn8qoc4"><path d="M120,321.44l-2.33,7.27a1.63,1.63,0,0,0,1.06,2.06l6.14,2a1.64,1.64,0,0,0,2.07-1.06l2.33-7.27Z" style="fill: rgb(255, 255, 255); opacity: 0.6; isolation: isolate; transform-origin: 123.43px 327.145px;" class="animable"></path></g><g id="elbf09noy855s"><rect x="126.96" y="304.1" width="6.69" height="2.55" rx="0.53" style="fill: rgb(197, 63, 63); transform-origin: 130.305px 305.375px; transform: rotate(17.78deg);" class="animable"></rect></g><path d="M137.55,300.06l-.21-3.23-5.66.35.21,3.24a3.08,3.08,0,0,1-.87,2.34h0a3.07,3.07,0,0,0-.87,2.35l1.62,25.94a1.65,1.65,0,0,0,1.74,1.54l6.44-.41a1.63,1.63,0,0,0,1.53-1.74l-1.62-25.93a3.15,3.15,0,0,0-1.16-2.23h0A3.06,3.06,0,0,1,137.55,300.06Z" style="fill: rgb(197, 63, 63); transform-origin: 135.814px 314.711px;" id="eldqwfocu94pj" class="animable"></path><g id="elfy42uk7opcd"><path d="M140.37,312.65l-.51-8.14a3.15,3.15,0,0,0-1.16-2.23,3.06,3.06,0,0,1-1.15-2.22l-.21-3.23-5.66.35.21,3.24a3.08,3.08,0,0,1-.87,2.34,3.07,3.07,0,0,0-.87,2.35l.51,8.15Z" style="fill: rgb(255, 255, 255); opacity: 0.6; isolation: isolate; transform-origin: 135.257px 305.045px;" class="animable"></path></g><g id="el55g4pr44akx"><path d="M131.29,323.43l.48,7.62a1.65,1.65,0,0,0,1.74,1.54l6.44-.41a1.63,1.63,0,0,0,1.53-1.74l-.48-7.62Z" style="fill: rgb(255, 255, 255); opacity: 0.6; isolation: isolate; transform-origin: 136.387px 327.706px;" class="animable"></path></g><g id="eloxkhs48c8p8"><rect x="131.19" y="296.11" width="6.69" height="2.55" rx="0.53" style="fill: rgb(197, 63, 63); transform-origin: 134.535px 297.385px; transform: rotate(-3.58deg);" class="animable"></rect></g><path d="M118.11,310l-2.1-2.47-4.32,3.67,2.1,2.47a3.13,3.13,0,0,1,.71,2.4h0a3.06,3.06,0,0,0,.71,2.41L132,338.32a1.64,1.64,0,0,0,2.31.19l4.91-4.18a1.63,1.63,0,0,0,.19-2.31l-16.82-19.81a3.06,3.06,0,0,0-2.25-1.09h0A3.07,3.07,0,0,1,118.11,310Z" style="fill: rgb(197, 63, 63); transform-origin: 125.746px 323.214px;" id="elmztb2y4tac" class="animable"></path><g id="el0qmsy68lepj"><path d="M127.9,318.43l-5.28-6.22a3.06,3.06,0,0,0-2.25-1.09,3.07,3.07,0,0,1-2.26-1.09l-2.1-2.47-4.32,3.67,2.1,2.47a3.13,3.13,0,0,1,.71,2.4,3.09,3.09,0,0,0,.7,2.41l5.29,6.22Z" style="fill: rgb(255, 255, 255); opacity: 0.6; isolation: isolate; transform-origin: 119.795px 316.145px;" class="animable"></path></g><g id="el5z2pw3zp1o8"><path d="M127.08,332.5l5,5.82a1.64,1.64,0,0,0,2.31.19l4.91-4.18a1.63,1.63,0,0,0,.19-2.31l-4.94-5.82Z" style="fill: rgb(255, 255, 255); opacity: 0.6; isolation: isolate; transform-origin: 133.481px 332.549px;" class="animable"></path></g><g id="elqkdc2hsk7je"><rect x="110.75" y="308.41" width="6.69" height="2.55" rx="0.53" style="fill: rgb(197, 63, 63); transform-origin: 114.095px 309.685px; transform: rotate(-40.33deg);" class="animable"></rect></g><path d="M138.36,419.07s49.32-1.84,54.76-1.84,1.22-4.45,1.22-4.45.89-15.22,0-21-16.29-46.87-26.79-56.57-10.39-13.35-10.39-13.35,1.66.36,1.66-2.75c0-2.79-11.24-7.31-19.35-7.92-5.44-.4-18.11,4.22-24.3,4.61s-22.25,21-19.9,24.83c.79,1.31,14.32-2.83,14.32-2.83a116.26,116.26,0,0,1-2.79,19c-2.19,8.38-7.65,22.92-7.65,31.12s6.92,24.64,6.92,24.64-2.92,2-2.92,3.61,9.11.92,9.11.92S129.62,419.07,138.36,419.07Z" style="fill: rgb(38, 50, 56); transform-origin: 145.469px 365.118px;" id="elo37g2hort6" class="animable"></path><g id="elv8uyean9ygh"><path d="M193.11,417.23c-5.43,0-54.75,1.84-54.75,1.84-8.73,0-26.1-2-26.1-2s-9.1.73-9.1-.92,2.91-3.61,2.91-3.61-2.38-5.64-4.34-12c-1.39-4.47-2.58-9.29-2.58-12.68,0-8.2,5.46-22.76,7.64-31.12a115.8,115.8,0,0,0,2.8-19h0a106.08,106.08,0,0,1-12,3c-1.24.16-2.13.15-2.31-.15-2.35-3.87,13.71-24.44,19.9-24.83s18.86-5,24.31-4.6c8.09.59,19.33,5.11,19.33,7.91,0,3.11-1.65,2.75-1.65,2.75s-.11,3.65,10.39,13.35,25.9,50.74,26.79,56.57a44.94,44.94,0,0,1,.35,4.73c.2,6.85-.35,16.31-.35,16.31S198.55,417.23,193.11,417.23Z" style="fill: rgb(255, 255, 255); opacity: 0.5; isolation: isolate; transform-origin: 145.472px 365.103px;" class="animable"></path></g><g id="el5krt50v3a6r"><path d="M118.41,325.92c-3.78,2.24-8.82,11.84-8.82,11.84h0a106.08,106.08,0,0,1-12,3C102.84,332.57,114.63,327.41,118.41,325.92Z" style="opacity: 0.2; isolation: isolate; transform-origin: 108px 333.34px;" class="animable"></path></g><g id="elb87k6r735m9"><path d="M119.58,325.48c-.1,0-.51.17-1.17.44A3,3,0,0,1,119.58,325.48Z" style="opacity: 0.2; isolation: isolate; transform-origin: 118.995px 325.7px;" class="animable"></path></g><g id="elot2k72d0e5d"><path d="M157.16,321.82s-11.27-5.33-15.71-6.06-20.7,4.86-20.7,4.86,15.19-8.74,20.7-7.53S155.58,318.26,157.16,321.82Z" style="opacity: 0.2; isolation: isolate; transform-origin: 138.955px 317.398px;" class="animable"></path></g><g id="elopdkafnuh4"><path d="M193.11,417.23c-5.43,0-54.75,1.84-54.75,1.84-8.73,0-26.1-2-26.1-2s-9.1.73-9.1-.92,2.91-3.61,2.91-3.61-2.38-5.64-4.34-12c9.73,5.71,23.6,12.1,37.23,12.33,0,0-18.33-7.89-22.27-16.72,0,0,26.34,14,33,14.35s33.65,2.95,36.08-.77c1.52-2.33,5.84-8.8,8.88-13.31.2,6.85-.35,16.31-.35,16.31S198.55,417.23,193.11,417.23Z" style="opacity: 0.2; isolation: isolate; transform-origin: 148.805px 407.61px;" class="animable"></path></g></g><g id="freepik--Character--inject-1" class="animable animator-active" style="transform-origin: 197.808px 292.379px;"><path d="M204.66,401.16l4.92.08c5-23.46,8.52-52.49,10.72-74.38.34-3.44.66-6.68.93-9.71.13-1.45.26-2.83.37-4.16.59-6.59,1-11.81,1.24-15,.18-2.36.27-3.65.27-3.65H205.35l.17,4.52.55,14.93.05,1.71.38,9.86.61,16.78C201,365.74,204.66,401.16,204.66,401.16Z" style="fill: rgb(235, 179, 118); transform-origin: 213.341px 347.79px;" id="el45jczh4q1ds" class="animable"></path><path d="M164.83,399.9l4.84.91c9.68-24.2,18.78-55.19,24.69-76.84.91-3.35,1.76-6.49,2.51-9.34,0-.14.07-.28.11-.42,1.49-5.65,2.64-10.15,3.36-13l.85-3.46-17.5-3-1,7.36-1.46,10.81L181,315l-1,7.36-2.66,19.76C167.28,364.38,164.83,399.9,164.83,399.9Z" style="fill: rgb(235, 179, 118); transform-origin: 183.01px 347.78px;" id="elzqf599f5q2o" class="animable"></path><g id="elezhh36a1fga"><path d="M181.24,312.89l15.63,1.74c0-.14.07-.28.11-.42,1.49-5.65,2.64-10.15,3.36-13l-17.64.88Z" style="opacity: 0.2; isolation: isolate; transform-origin: 190.79px 307.92px;" class="animable"></path></g><g id="el630rhz6b30r"><path d="M205.52,298.83l.55,14.93.05,1.71,15.11,1.68c.13-1.45.26-2.83.37-4.16.59-6.59,1-11.81,1.24-15Z" style="opacity: 0.2; isolation: isolate; transform-origin: 214.18px 307.57px;" class="animable"></path></g><path d="M219.17,417.46a9.46,9.46,0,0,0-3.07-1.67h0s-3.35-3.32-5-13.31l-4.38-1.14a3.73,3.73,0,0,0-4,1.55,2.07,2.07,0,0,0-.28.58,25.19,25.19,0,0,0-.47,3.25,90.17,90.17,0,0,0-.06,11h.79l.32-6.89c.11-2.34,1.9.4,2.41,2.92s1.6,5.2,6.73,5.32C218.2,419.16,220.68,418.93,219.17,417.46Z" style="fill: rgb(38, 50, 56); transform-origin: 210.686px 410.159px;" id="elopv5xem2vt" class="animable"></path><path d="M202.63,403c-.29-2.33-.38-6.4-.38-6.4l9.73,1.08s-1.18,4.62-.21,8.09C206.87,404.46,202.63,403,202.63,403Z" style="fill: rgb(38, 50, 56); transform-origin: 207.115px 401.185px;" id="elfst2mt0xdz" class="animable"></path><path d="M179.58,417.46a9.51,9.51,0,0,0-3.08-1.67h0s-3.34-3.32-4.95-13.31l-4.38-1.14a3.73,3.73,0,0,0-4,1.55,2.07,2.07,0,0,0-.28.58,25.19,25.19,0,0,0-.47,3.25,90.17,90.17,0,0,0-.06,11h.79l.31-6.89c.12-2.34,1.91.4,2.42,2.92s1.6,5.2,6.73,5.32C178.61,419.16,181.09,418.93,179.58,417.46Z" style="fill: rgb(38, 50, 56); transform-origin: 171.116px 410.159px;" id="eli4ubr3nfajn" class="animable"></path><path d="M163,403c-.28-2.33-.37-6.4-.37-6.4l9.73,1.08s-1.18,4.62-.21,8.09C167.28,404.46,163,403,163,403Z" style="fill: rgb(38, 50, 56); transform-origin: 167.495px 401.185px;" id="elmie3u39ffk" class="animable"></path><path d="M179.55,308.07l18.51,2.37.72.08,3.8-13.95,1,14.95,19.84-1c8.84-51.86-6.27-64.11-6.27-64.11l-26.91,5.41C178.06,272.5,181,296.57,181,296.57Z" style="fill: rgb(197, 63, 63); transform-origin: 202.872px 278.965px;" id="elvmjlzr6j4co" class="animable"></path><g id="eli8b9i2vf7p"><path d="M179.55,308.07l18.51,2.37.72.08,3.8-13.95,1,14.95,19.84-1c8.84-51.86-6.27-64.11-6.27-64.11l-26.91,5.41C178.06,272.5,181,296.57,181,296.57Z" style="fill: rgb(255, 255, 255); opacity: 0.5; isolation: isolate; transform-origin: 202.872px 278.965px;" class="animable"></path></g><g id="el5qjv6hgxyvx"><path d="M198.06,310.44l.72.08,3.8-13.95s-8.16-13.94-5.61-21.2C196.61,275.88,187.82,288.92,198.06,310.44Z" style="opacity: 0.2; isolation: isolate; transform-origin: 197.849px 292.945px;" class="animable"></path></g><path d="M154,214l1-3.09-5.4-1.73-1,3.08a3.07,3.07,0,0,1-1.66,1.87h0a3.14,3.14,0,0,0-1.67,1.88l-5.69,17.73a1.64,1.64,0,0,0,1.06,2.06l6.14,2a1.64,1.64,0,0,0,2.07-1.06L154.51,219a3.1,3.1,0,0,0-.27-2.49h0A3.1,3.1,0,0,1,154,214Z" style="fill: rgb(197, 63, 63); transform-origin: 147.251px 223.53px;" id="elorx3kaj87ac" class="animable"></path><g id="eld4rblkxdb4o"><path d="M154,214l1-3.09-5.4-1.73-1,3.08a3.07,3.07,0,0,1-1.66,1.87h0a3.14,3.14,0,0,0-1.67,1.88l-5.69,17.73a1.64,1.64,0,0,0,1.06,2.06l6.14,2a1.64,1.64,0,0,0,2.07-1.06L154.51,219a3.1,3.1,0,0,0-.27-2.49h0A3.1,3.1,0,0,1,154,214Z" style="opacity: 0.2; isolation: isolate; transform-origin: 147.251px 223.53px;" class="animable"></path></g><g id="eludmt8j6lh7"><path d="M153.14,223.28l1.37-4.26a3.1,3.1,0,0,0-.27-2.49A3.1,3.1,0,0,1,154,214l1-3.09-5.4-1.73-1,3.08a3.07,3.07,0,0,1-1.66,1.87,3.11,3.11,0,0,0-1.67,1.88l-1.37,4.26Z" style="fill: rgb(255, 255, 255); opacity: 0.5; isolation: isolate; transform-origin: 149.45px 216.23px;" class="animable"></path></g><g id="elnkhc9z5dzgp"><path d="M141.88,226.51l-2.33,7.27a1.64,1.64,0,0,0,1.06,2.06l6.14,2a1.64,1.64,0,0,0,2.07-1.06l2.33-7.27Z" style="fill: rgb(255, 255, 255); opacity: 0.6; isolation: isolate; transform-origin: 145.311px 232.215px;" class="animable"></path></g><g id="elmfs94xn87h"><rect x="148.8" y="209.18" width="6.69" height="2.55" rx="0.53" style="fill: rgb(197, 63, 63); transform-origin: 152.145px 210.455px; transform: rotate(17.78deg);" class="animable"></rect></g><path d="M251.67,182.81l-.2-3.24-5.66.36.2,3.23a3.1,3.1,0,0,1-.87,2.35h0a3.11,3.11,0,0,0-.87,2.35l1.62,25.94a1.64,1.64,0,0,0,1.74,1.53l6.44-.4a1.64,1.64,0,0,0,1.53-1.74L254,187.25a3.06,3.06,0,0,0-1.15-2.22h0A3,3,0,0,1,251.67,182.81Z" style="fill: rgb(197, 63, 63); transform-origin: 249.934px 197.452px;" id="elvu7wfk6zba" class="animable"></path><g id="elcjnqfjtptl6"><path d="M254.49,195.39l-.51-8.14a3.06,3.06,0,0,0-1.15-2.22,3,3,0,0,1-1.16-2.22l-.2-3.24-5.66.36.2,3.23a3.1,3.1,0,0,1-.87,2.35,3.11,3.11,0,0,0-.87,2.35l.51,8.14Z" style="fill: rgb(255, 255, 255); opacity: 0.6; isolation: isolate; transform-origin: 249.377px 187.785px;" class="animable"></path></g><g id="el0w1q6yb9knn"><path d="M245.42,206.18l.47,7.62a1.64,1.64,0,0,0,1.74,1.53l6.44-.4a1.64,1.64,0,0,0,1.53-1.74l-.47-7.62Z" style="fill: rgb(255, 255, 255); opacity: 0.6; isolation: isolate; transform-origin: 250.512px 210.452px;" class="animable"></path></g><g id="el2yf4m5t7dmb"><rect x="245.32" y="178.86" width="6.69" height="2.55" rx="0.53" style="fill: rgb(197, 63, 63); transform-origin: 248.665px 180.135px; transform: rotate(-3.58deg);" class="animable"></rect></g><path d="M151.52,229.33a27.06,27.06,0,0,1,0-3c.1-1.33-6.63-8.65-7.72-8.27s-3.46,5.07-2.73,6.64,6,6.3,7.28,6.67S151.52,229.33,151.52,229.33Z" style="fill: rgb(235, 179, 118); transform-origin: 146.227px 224.727px;" id="elvsy6zso1j3o" class="animable"></path><path d="M175.27,219.63s-3,15.1-6.26,18.14-18.22-12.43-18.22-12.43l-2.94,3.15s14.73,19.44,22.63,16.12,14.19-20.94,14.19-20.94Z" style="fill: rgb(235, 179, 118); transform-origin: 166.26px 232.311px;" id="el0faqjw8x27el" class="animable"></path><polygon points="176.8 213.44 171.78 225.11 183.01 232.8 190.79 225.11 176.8 213.44" style="fill: rgb(197, 63, 63); transform-origin: 181.285px 223.12px;" id="elxub8969umnj" class="animable"></polygon><g id="el976f8df0689"><polygon points="171.78 225.12 178.43 229.67 183.01 232.8 186.78 229.07 190.78 225.12 176.8 213.44 171.78 225.12" style="fill: rgb(255, 255, 255); opacity: 0.2; isolation: isolate; transform-origin: 181.28px 223.12px;" class="animable"></polygon></g><g id="elekot4c6xn6t"><path d="M178.43,229.67,183,232.8l3.77-3.73c-3.55-5-7.58-9.77-7.58-9.77A22.88,22.88,0,0,0,178.43,229.67Z" style="opacity: 0.2; isolation: isolate; transform-origin: 182.461px 226.05px;" class="animable"></path></g><path d="M221.8,211.07s10.17,11.53,14.54,12.5,9.47-19.92,9.47-19.92l4.13,1.23S247,229.1,238.53,230.22s-22.82-10.92-22.82-10.92Z" style="fill: rgb(235, 179, 118); transform-origin: 232.825px 216.972px;" id="elggox7y09hka" class="animable"></path><path d="M206.59,183.36a18,18,0,0,0,2,3.83,2.36,2.36,0,0,1-2.35.67Z" style="fill: rgb(213, 135, 69); transform-origin: 207.415px 185.652px;" id="ela8ifj9j37vs" class="animable"></path><path d="M207.72,181.19c0,.7-.3,1.29-.76,1.32s-.88-.51-.93-1.21.29-1.29.76-1.32S207.67,180.49,207.72,181.19Z" style="fill: rgb(38, 50, 56); transform-origin: 206.873px 181.245px;" id="el0vddwjhcswf" class="animable"></path><path d="M206.59,180l1.48-.7S207.4,180.66,206.59,180Z" style="fill: rgb(38, 50, 56); transform-origin: 207.33px 179.74px;" id="elz3d91lglrn" class="animable"></path><path d="M208.31,177.48a.32.32,0,0,1-.19,0,3.59,3.59,0,0,0-3.1-.52.37.37,0,0,1-.47-.2.36.36,0,0,1,.19-.47,4.31,4.31,0,0,1,3.75.57.36.36,0,0,1,.13.5A.37.37,0,0,1,208.31,177.48Z" style="fill: rgb(38, 50, 56); transform-origin: 206.597px 176.793px;" id="ela1sqe7wbn9" class="animable"></path><path d="M207.05,185.69c-1.27,0-2.27-1.73-2.27-3.94s1-3.94,2.27-3.94,2.27,1.73,2.27,3.94S208.32,185.69,207.05,185.69Zm0-7.38c-1,0-1.77,1.57-1.77,3.44s.81,3.44,1.77,3.44,1.77-1.58,1.77-3.44S208,178.31,207.05,178.31Z" style="fill: rgb(38, 50, 56); transform-origin: 207.05px 181.75px;" id="el5amw6ge36d4" class="animable"></path><path d="M191.74,194.1a1.18,1.18,0,0,0,.24.17,10.57,10.57,0,0,0,3.76,1.84c4,.92,6.69.38,8.46-1.42h0c2.48-2.7,3.1-7.48,2.75-13.24a21.52,21.52,0,0,0-1.26-6.74s0-.08,0-.1a2.44,2.44,0,0,0-.1-.24,7.89,7.89,0,0,0-5.78-4.81,16.36,16.36,0,0,0-3.41-.38C185.15,169.06,183.13,187.68,191.74,194.1Z" style="fill: rgb(235, 179, 118); transform-origin: 196.726px 182.865px;" id="eluqu51f8738q" class="animable"></path><g id="ela3u3z2tdz0i"><path d="M192,194.27a10.48,10.48,0,0,0,3.76,1.69c4,.91,6.69.24,8.46-1.59a11.19,11.19,0,0,1-7.13-.58A5.85,5.85,0,0,0,192,194.27Z" style="opacity: 0.2; isolation: isolate; transform-origin: 198.11px 194.891px;" class="animable"></path></g><path d="M190.84,204.43c-.7,3.2,3.45,4.5,3.45,4.5,6.78-2.89,8-6.5,8-6.5-5.66-3-4-11.29-4-11.29l-1.15.56-8.08,1.58s2.24,4.3,2.54,5.28v0C193.15,203.72,190.84,204.43,190.84,204.43Z" style="fill: rgb(235, 179, 118); transform-origin: 195.675px 200.035px;" id="eled2h7kwz2eh" class="animable"></path><path d="M205.7,174.64s.62,7.88-6.85,11.27c0,0-3.2,8.19-7.93,8.3-6.43.16-12.11-9-9.88-18.33C183.93,163.78,202.26,162.8,205.7,174.64Z" style="fill: rgb(38, 50, 56); transform-origin: 193.129px 180.238px;" id="eln2wrvbdrchm" class="animable"></path><path d="M202.64,183.64c0-1.23-1-3.29-2.91-3s-3.07,5.17,1.79,6.26C202.22,187,202.64,186.21,202.64,183.64Z" style="fill: rgb(235, 179, 118); transform-origin: 200.36px 183.76px;" id="elr5z954r5r4" class="animable"></path><path d="M192,166.26s7.52-1.9,11.67,1.12c4.86,3.53,6.7,7.19.95,12.86,0,0-12.62-4.1-16.82-3.23a45.74,45.74,0,0,0-7.2,2.09C179.7,170.76,187.78,164.56,192,166.26Z" style="fill: rgb(38, 50, 56); transform-origin: 194.361px 172.955px;" id="eldqwutxubm6" class="animable"></path><path d="M209.07,181.42h-7.55a.26.26,0,0,1-.25-.25.25.25,0,0,1,.25-.25h7.55a.25.25,0,0,1,.25.25A.25.25,0,0,1,209.07,181.42Z" style="fill: rgb(38, 50, 56); transform-origin: 205.295px 181.17px;" id="elp3prtahfso" class="animable"></path><path d="M186.41,171s-7.78-6.48-14.33-1.77C164,175,173,197.38,173.54,203s-2.19,8.12-2.19,8.12,6,.13,8.2-9.4-4.58-25.49,4.08-23.61Z" style="fill: rgb(38, 50, 56); transform-origin: 177.569px 189.317px;" id="elk78fjkxtm8k" class="animable"></path><path d="M213.34,203.65s-9-3-22.5.67-14,9.12-14,9.12,8.57,18.33,9.92,39.09L222,251.28S226.19,222,213.34,203.65Z" style="fill: rgb(197, 63, 63); transform-origin: 199.746px 227.513px;" id="elxbns53xqy8n" class="animable"></path><g id="el08s847t5bvol"><path d="M176.8,213.43s8.58,18.34,9.93,39.1L222,251.29a83.17,83.17,0,0,0,.64-10.15,92.85,92.85,0,0,0-1-14.89c-1.17-7.68-3.6-15.88-8.31-22.6,0,0-9-3-22.5.67S176.8,213.43,176.8,213.43Z" style="fill: rgb(255, 255, 255); opacity: 0.2; isolation: isolate; transform-origin: 199.724px 227.513px;" class="animable"></path></g><g id="elbhv3pcdj57"><path d="M213.24,219.3s2.06,16.64,9.39,21.84a92.85,92.85,0,0,0-1-14.89Z" style="opacity: 0.2; isolation: isolate; transform-origin: 217.939px 230.22px;" class="animable"></path></g><path d="M213.34,203.65c10.47,4.3,18.27,12.81,18.27,12.81l-8.5,10.42s-4.24-.88-6.79-3.19C208.79,216.91,213.34,203.65,213.34,203.65Z" style="fill: rgb(197, 63, 63); transform-origin: 221.794px 215.265px;" id="elht5p8hu4y48" class="animable"></path><g id="elbzmrtp8d8a9"><path d="M213.34,203.65c10.47,4.3,18.27,12.81,18.27,12.81l-8.5,10.42s-4.24-.88-6.79-3.19C208.79,216.91,213.34,203.65,213.34,203.65Z" style="fill: rgb(255, 255, 255); opacity: 0.2; isolation: isolate; transform-origin: 221.794px 215.265px;" class="animable"></path></g><path d="M245.55,204.68a26.86,26.86,0,0,0,0-3c-.1-1.34,6.63-8.66,7.72-8.28s3.46,5.07,2.74,6.64-6,6.31-7.29,6.67S245.55,204.68,245.55,204.68Z" style="fill: rgb(235, 179, 118); transform-origin: 250.846px 200.066px;" id="eli0jnbyh32oq" class="animable"></path></g><defs>     <filter id="active" height="200%">         <feMorphology in="SourceAlpha" result="DILATED" operator="dilate" radius="2"></feMorphology>                <feFlood flood-color="#32DFEC" flood-opacity="1" result="PINK"></feFlood>        <feComposite in="PINK" in2="DILATED" operator="in" result="OUTLINE"></feComposite>        <feMerge>            <feMergeNode in="OUTLINE"></feMergeNode>            <feMergeNode in="SourceGraphic"></feMergeNode>        </feMerge>    </filter>    <filter id="hover" height="200%">        <feMorphology in="SourceAlpha" result="DILATED" operator="dilate" radius="2"></feMorphology>                <feFlood flood-color="#ff0000" flood-opacity="0.5" result="PINK"></feFlood>        <feComposite in="PINK" in2="DILATED" operator="in" result="OUTLINE"></feComposite>        <feMerge>            <feMergeNode in="OUTLINE"></feMergeNode>            <feMergeNode in="SourceGraphic"></feMergeNode>        </feMerge>            <feColorMatrix type="matrix" values="0   0   0   0   0                0   1   0   0   0                0   0   0   0   0                0   0   0   1   0 "></feColorMatrix>    </filter></defs></svg>