<?xml version="1.0" encoding="UTF-8" standalone="no"?>
<!-- Generator: Adobe Illustrator 16.0.0, SVG Export Plug-In . SVG Version: 6.00 Build 0)  -->

<svg
   xmlns:dc="http://purl.org/dc/elements/1.1/"
   xmlns:cc="http://creativecommons.org/ns#"
   xmlns:rdf="http://www.w3.org/1999/02/22-rdf-syntax-ns#"
   xmlns:svg="http://www.w3.org/2000/svg"
   xmlns="http://www.w3.org/2000/svg"
   xmlns:xlink="http://www.w3.org/1999/xlink"
   xmlns:sodipodi="http://sodipodi.sourceforge.net/DTD/sodipodi-0.dtd"
   xmlns:inkscape="http://www.inkscape.org/namespaces/inkscape"
   version="1.1"
   x="0px"
   y="0px"
   width="500px"
   height="500px"
   viewBox="0 0 500 500"
   enable-background="new 0 0 500 500"
   xml:space="preserve"
   id="svg3988"
   inkscape:version="0.48.4 r9939"
   sodipodi:docname="pet@2x.svg"><metadata
   id="metadata4029"><rdf:RDF><cc:Work
       rdf:about=""><dc:format>image/svg+xml</dc:format><dc:type
         rdf:resource="http://purl.org/dc/dcmitype/StillImage" /></cc:Work></rdf:RDF></metadata><defs
   id="defs4027" /><sodipodi:namedview
   pagecolor="#ffffff"
   bordercolor="#666666"
   borderopacity="1"
   objecttolerance="10"
   gridtolerance="10"
   guidetolerance="10"
   inkscape:pageopacity="0"
   inkscape:pageshadow="2"
   inkscape:window-width="640"
   inkscape:window-height="480"
   id="namedview4025"
   showgrid="false"
   inkscape:zoom="0.472"
   inkscape:cx="250"
   inkscape:cy="250"
   inkscape:window-x="0"
   inkscape:window-y="0"
   inkscape:window-maximized="0"
   inkscape:current-layer="svg3988" />
<g
   id="Layer_1"
   transform="matrix(1.7682433,0,0,1.7682433,-190.36118,-189.75764)">
	<g
   id="bg">
		<path
   d="m 385.533,341.896 c 0,23.922 -19.396,43.317 -43.313,43.317 H 157.638 c -23.922,0 -43.314,-19.396 -43.314,-43.317 V 157.314 C 114.324,133.392 133.716,114 157.638,114 H 342.22 c 23.917,0 43.313,19.392 43.313,43.314 v 184.582 z"
   id="path3992"
   inkscape:connector-curvature="0"
   style="fill:#ffffff" />
		<g
   id="g3994">
			<g
   id="g3996">
				<defs
   id="defs3998">
					<path
   id="SVGID_1_"
   d="m 385.533,341.896 c 0,23.922 -19.396,43.317 -43.313,43.317 H 157.638 c -23.922,0 -43.314,-19.396 -43.314,-43.317 V 157.314 C 114.324,133.392 133.716,114 157.638,114 H 342.22 c 23.917,0 43.313,19.392 43.313,43.314 v 184.582 z"
   inkscape:connector-curvature="0" />
				</defs>
				<clipPath
   id="SVGID_2_">
					<use
   xlink:href="#SVGID_1_"
   overflow="visible"
   id="use4002"
   style="overflow:visible"
   x="0"
   y="0"
   width="500"
   height="500" />
				</clipPath>
				<ellipse
   clip-path="url(#SVGID_2_)"
   cx="250.634"
   cy="376.95099"
   rx="204.146"
   ry="82.195"
   id="ellipse4004"
   sodipodi:cx="250.634"
   sodipodi:cy="376.95099"
   sodipodi:rx="204.146"
   sodipodi:ry="82.195"
   style="fill:#f5f5f5"
   d="m 454.78,376.95099 c 0,45.39504 -91.39928,82.195 -204.146,82.195 -112.74672,0 -204.145993,-36.79996 -204.145993,-82.195 0,-45.39505 91.399273,-82.195 204.145993,-82.195 112.74672,0 204.146,36.79995 204.146,82.195 z" />
			</g>
		</g>
		<path
   d="M 342.22,390.252 H 157.638 c -26.666,0 -48.357,-21.688 -48.357,-48.355 V 157.314 c 0,-26.661 21.691,-48.355 48.357,-48.355 H 342.22 c 26.663,0 48.356,21.694 48.356,48.355 v 184.581 c 0,26.667 -21.693,48.357 -48.356,48.357 z M 157.638,119.043 c -21.103,0 -38.271,17.168 -38.271,38.271 v 184.581 c 0,21.104 17.168,38.275 38.271,38.275 H 342.22 c 21.1,0 38.271,-17.173 38.271,-38.275 V 157.314 c 0,-21.103 -17.172,-38.271 -38.271,-38.271 H 157.638 z"
   id="path4006"
   inkscape:connector-curvature="0"
   style="fill:#88000d" />
	</g>
	<g
   id="Layer_2">
	</g>
</g>
<g
   id="Layer_2_1_"
   transform="matrix(1.7682433,0,0,1.7682433,-190.36118,-189.75764)">
</g>
<g
   id="Layer_3"
   transform="matrix(1.7682433,0,0,1.7682433,-190.36118,-189.75764)">
	<path
   d="m 256.139,311.413 c -3.092,0 -7.302,0 -7.302,0 v 12.353 c 0,0 5.336,0 7.441,0 2.104,0 4.074,-2.528 4.074,-5.898 0.001,-3.37 -1.128,-6.455 -4.213,-6.455 z"
   id="path4011"
   inkscape:connector-curvature="0"
   style="fill:#88000d" />
	<rect
   x="142.48801"
   y="243.048"
   width="53.543999"
   height="79.911003"
   id="rect4013"
   style="fill:#88000d" />
	<path
   d="m 142.461,343.156 c 0,0 0.2,6.031 1.006,10.956 0.804,4.926 6.229,6.634 7.94,6.932 1.705,0.304 7.636,-4.323 7.636,-4.323 l -3.416,-5.932 c 0,0 -1.608,-2.509 -0.905,-3.111 0.705,-0.603 1.61,0.198 1.61,0.198 l 7.436,11.963 c 0,0 2.817,1.205 5.026,1.205 2.213,0 5.528,-1.007 5.528,-1.007 l 6.435,-10.758 c 0,0 1.605,-2.912 2.813,-2.104 1.207,0.801 0.402,1.708 0.402,1.708 l -4.523,8.043 c 4.824,3.416 7.838,4.323 12.059,1.906 4.222,-2.409 4.523,-16.08 4.523,-16.08 V 327.169 H 142.66 l -0.199,15.987 z"
   id="path4015"
   inkscape:connector-curvature="0"
   style="fill:#88000d" />
	<path
   d="m 177.92,165.231 v -4.319 h -17.778 v 4.488 c 0,0 -16.452,28.748 -17.781,54.339 v 19.112 h 53.672 l -0.164,-19.615 c -0.001,0 1.663,-19.276 -17.949,-54.005 z"
   id="path4017"
   inkscape:connector-curvature="0"
   style="fill:#88000d" />
	<polygon
   points="159.03,138.976 157.97,140.469 157.98,153.266 180.58,153.266 180.25,140.634 179.249,138.976 "
   id="polygon4019"
   style="fill:#88000d" />
	<path
   d="m 157.419,158.316 c 0,0 23.175,0.043 23.514,0 0.339,-0.04 0.932,-0.549 0.932,-1.271 0,-0.722 -0.889,-1.271 -0.889,-1.271 h -23.514 c 0,0 -0.891,0.255 -0.891,1.271 0.001,1.02 0.848,1.271 0.848,1.271 z"
   id="path4021"
   inkscape:connector-curvature="0"
   style="fill:#88000d" />
	<path
   d="m 227.039,289.422 h -0.003 v 70.854 h 128.993 v -69.523 l 0.235,-151.13 H 227.269 l -0.23,149.799 z m 33.025,45.294 c -5.468,0.284 -11.366,0.139 -11.366,0.139 v 17.418 h -13.904 v -52.239 c 0,0 20.924,-0.139 24.575,-0.139 3.648,0 15.306,3.092 15.306,17.556 0,14.458 -9.132,16.987 -14.611,17.265 z m 48.724,18.112 h -30.26 v -52.795 h 30.124 v 12.075 h -16.285 v 8.149 h 15.163 v 11.79 h -15.163 v 8.566 h 16.421 v 12.215 z m 40.441,-40.72 H 338.28 v 40.581 h -14.187 v -40.581 h -10.811 v -12.354 h 35.946 v 12.354 z M 238.713,192.982 c 3.368,-7.497 7.118,-1.658 7.118,-1.658 l 19.923,20.158 c 0,0 -3.969,11.997 2.85,22.543 4.422,6.845 10.406,13.425 23.488,14.471 9.241,0.742 28.221,-8.069 27.996,-27.758 -0.186,-16.145 -11.863,-26.567 -27.281,-27.521 0,0 -0.238,5.932 -0.477,9.02 -0.238,3.082 -3.085,5.216 -5.224,5.69 -2.132,0.477 -5.925,0.715 -9.963,-3.793 -4.032,-4.508 -20.642,-20.879 -22.773,-23.488 -2.138,-2.608 -2.608,-7.593 1.424,-9.963 0,0 21.111,-17.318 25.388,-20.403 4.27,-3.085 6.633,-4.035 10.678,-0.95 4.028,3.084 2.84,9.254 2.84,11.151 l 13.856,2.635 -0.133,0.132 c 25.521,6.918 44.295,30.247 44.295,57.954 0,33.166 -26.881,60.05 -60.037,60.05 -29.241,0 -53.598,-20.899 -58.952,-48.578 l -0.053,-0.218 c -0.679,-3.555 -1.144,-7.375 -1.367,-11.473 0.001,0 -0.815,-11.937 6.404,-28.001 z"
   id="path4023"
   inkscape:connector-curvature="0"
   style="fill:#88000d" />
</g>
</svg>